<?xml version="1.0" standalone="no"?>
<!DOCTYPE svg PUBLIC "-//W3C//DTD SVG 20010904//EN"
 "http://www.w3.org/TR/2001/REC-SVG-20010904/DTD/svg10.dtd">
<svg version="1.0" xmlns="http://www.w3.org/2000/svg"
 width="500.000000pt" height="500.000000pt" viewBox="0 0 500.000000 500.000000"
 preserveAspectRatio="xMidYMid meet">

<g transform="translate(0.000000,500.000000) scale(0.100000,-0.100000)"
fill="#000000" stroke="none">
<path d="M736 4355 c4 -8 8 -15 10 -15 2 0 4 7 4 15 0 8 -4 15 -10 15 -5 0 -7
-7 -4 -15z"/>
<path d="M2920 4300 c-36 -5 -148 -15 -250 -24 -102 -9 -277 -28 -390 -41
-384 -44 -655 -77 -677 -81 -53 -10 -53 2 -53 -698 -1 -473 2 -652 11 -662 6
-7 32 -16 58 -20 l46 -6 -3 -80 c-2 -44 0 -84 5 -89 11 -11 252 -46 381 -55
l102 -7 0 -52 c0 -52 0 -52 -42 -70 -24 -11 -80 -43 -125 -72 -45 -29 -93 -58
-107 -65 -14 -6 -26 -18 -26 -26 0 -10 18 -4 63 21 l63 34 17 -57 c14 -49 26
-67 77 -112 117 -107 247 -151 443 -152 109 -1 126 -3 121 -16 -3 -8 -14 -57
-25 -107 -11 -51 -23 -103 -28 -115 -5 -13 -17 -59 -27 -103 -9 -44 -22 -86
-27 -93 -6 -8 -12 -28 -12 -45 -1 -18 -6 -43 -12 -57 -21 -50 -24 -68 -13 -75
8 -5 7 -12 -3 -23 -8 -10 -17 -25 -20 -35 -4 -10 -11 -15 -17 -12 -5 3 -10 -1
-10 -9 0 -9 -5 -16 -11 -16 -5 0 -7 5 -3 12 5 7 3 8 -5 4 -7 -5 -10 -14 -7
-22 3 -8 2 -13 -2 -12 -14 4 -52 -14 -47 -22 3 -5 -4 -12 -16 -15 -20 -7 -20
-7 -2 -28 9 -12 11 -16 3 -10 -18 17 -33 17 -24 1 5 -9 3 -9 -9 1 -14 11 -18
11 -23 -3 -3 -9 0 -24 7 -34 13 -16 12 -16 -6 -1 -21 17 -45 15 -45 -3 0 -6 8
-7 18 -3 13 5 14 4 5 -6 -9 -9 -16 -9 -26 -1 -10 9 -17 7 -30 -9 -10 -11 -15
-23 -13 -28 3 -4 -1 -8 -9 -8 -8 0 -11 5 -8 11 4 8 2 8 -5 1 -6 -6 -13 -20
-15 -32 -2 -13 -7 -26 -12 -30 -4 -5 -5 -3 -2 3 4 7 0 15 -9 18 -8 3 -13 2
-11 -2 6 -9 -19 -33 -27 -25 -3 4 -6 -5 -7 -18 0 -23 -1 -23 -10 -4 -8 17 -9
15 -5 -10 3 -25 2 -27 -8 -13 -9 12 -16 14 -29 6 -10 -5 -15 -14 -11 -20 4 -7
9 -6 14 2 5 8 9 8 13 -3 4 -11 0 -15 -14 -12 -10 2 -22 6 -27 8 -4 3 -13 -1
-20 -9 -7 -8 -9 -14 -5 -14 4 -1 -4 -8 -19 -16 -16 -8 -28 -19 -28 -25 0 -6
-4 -8 -9 -5 -5 3 -8 -2 -7 -12 0 -9 -6 -17 -14 -17 -22 0 -31 -17 -17 -35 10
-13 10 -13 -5 -2 -20 16 -42 6 -34 -15 3 -8 1 -11 -4 -8 -6 3 -13 -1 -16 -9
-3 -9 -10 -13 -15 -10 -5 3 -9 -3 -9 -12 0 -10 -3 -15 -6 -11 -9 9 -64 -55
-57 -66 4 -6 -1 -8 -12 -3 -15 5 -16 4 -5 -9 11 -13 10 -14 -6 -9 -18 7 -18 6
1 -17 12 -14 14 -19 4 -11 -20 15 -46 6 -54 -19 -4 -10 -12 -18 -18 -16 -7 1
-11 -8 -10 -23 1 -14 0 -19 -3 -12 -3 6 -12 12 -20 12 -9 0 -12 -4 -9 -10 3
-5 2 -10 -3 -10 -20 0 -19 -41 0 -106 l21 -67 14 27 c11 20 19 26 36 22 12 -3
16 -3 10 0 -7 3 -13 10 -13 15 0 6 5 7 12 3 8 -5 9 -2 5 10 -4 10 -3 15 4 11
5 -4 36 14 67 39 103 82 112 87 123 80 8 -4 9 -3 5 4 -7 12 37 46 204 159 118
79 222 143 261 160 l26 11 -40 -175 c-36 -161 -37 -176 -23 -192 15 -16 15
-19 -1 -33 -10 -8 -40 -28 -68 -44 -27 -15 -52 -32 -53 -36 -2 -5 -9 -5 -15
-1 -7 4 -8 0 -4 -11 5 -11 3 -15 -5 -10 -6 4 -16 1 -22 -7 -6 -8 -18 -14 -26
-14 -8 0 -14 -8 -14 -17 1 -11 -4 -14 -14 -11 -10 4 -13 2 -8 -5 4 -8 2 -10
-8 -6 -8 3 -23 -3 -34 -14 -11 -11 -23 -18 -25 -15 -6 6 -129 -64 -138 -79 -3
-5 -8 -9 -10 -8 -13 5 -168 -66 -191 -87 -30 -27 -20 -34 41 -31 47 2 57 6 49
16 -9 10 -6 11 16 3 24 -10 30 -7 27 12 -1 5 3 6 8 3 5 -4 16 0 24 8 8 8 17
12 21 9 3 -4 6 -1 6 7 0 9 3 10 13 1 8 -6 17 -8 20 -4 4 3 10 -2 13 -11 5 -14
9 -15 15 -4 5 8 9 9 9 2 0 -6 -8 -18 -17 -25 -11 -10 -14 -10 -9 -2 4 7 3 13
-2 13 -15 0 -22 -13 -12 -24 6 -8 2 -12 -12 -13 -12 -1 -24 -7 -28 -13 -4 -7
-11 -12 -16 -12 -5 0 -19 -5 -31 -11 -19 -8 -20 -13 -11 -31 10 -18 9 -19 -3
-9 -12 10 -18 6 -34 -18 -11 -16 -27 -29 -35 -30 -10 0 -7 -4 7 -11 17 -8 38
-5 95 13 103 33 101 33 93 18 -5 -7 -4 -10 3 -5 6 4 9 12 6 19 -3 8 21 21 63
36 89 32 212 89 530 245 29 14 54 22 58 17 3 -5 -45 -37 -107 -70 -62 -34
-124 -68 -138 -76 -74 -43 -253 -124 -262 -119 -7 5 -8 2 -3 -6 5 -8 3 -11 -6
-8 -8 3 -20 -1 -27 -9 -8 -7 -18 -10 -24 -7 -7 4 -8 2 -4 -4 8 -14 -37 -27
-55 -16 -8 4 -9 3 -5 -4 7 -11 -6 -17 -27 -13 -5 1 -6 -3 -2 -9 4 -6 74 -10
188 -10 160 0 187 3 226 20 23 11 48 17 54 13 5 -3 7 -1 4 4 -4 6 18 19 51 31
31 12 123 55 205 96 81 41 144 70 141 64 -4 -6 -1 -8 7 -6 8 3 13 11 11 17 -1
7 2 10 8 6 16 -10 40 14 40 39 0 11 -9 35 -19 53 -15 24 -28 32 -53 35 -29 3
-33 7 -36 36 -3 25 3 39 27 63 l31 31 34 -20 c26 -15 62 -21 162 -28 126 -8
152 -8 224 -2 l35 3 -3 -40 c-2 -33 4 -47 33 -80 l35 -40 -24 53 -24 54 23 56
c13 31 26 83 30 116 5 38 10 53 16 45 16 -25 9 -113 -11 -158 -26 -56 -25 -65
10 -131 17 -30 30 -68 30 -83 0 -31 -23 -82 -51 -113 -19 -21 -19 -21 16 -59
19 -21 37 -47 41 -57 5 -17 21 -18 202 -18 157 1 194 3 181 13 -55 42 -89 79
-93 102 -4 23 1 19 41 -25 60 -66 88 -80 165 -80 79 1 119 15 196 70 48 33 62
49 63 69 0 23 1 23 8 7 7 -18 9 -16 19 14 7 18 12 42 13 54 0 12 3 15 6 8 3
-7 18 15 34 48 34 72 38 100 7 50 -13 -21 -23 -30 -26 -22 -2 7 3 21 11 30 30
34 58 105 63 155 l4 52 -18 -61 c-21 -71 -54 -130 -71 -127 -6 2 -11 -5 -12
-15 0 -10 -2 -12 -6 -4 -3 7 3 24 12 39 14 21 15 27 4 34 -12 7 -11 9 1 10 8
1 18 1 23 0 4 0 7 4 7 10 0 6 -7 9 -15 5 -8 -3 -15 -1 -15 4 0 6 8 10 18 10
13 0 14 2 3 9 -11 7 -10 11 5 20 11 6 14 11 7 11 -8 0 -11 12 -8 33 2 17 6 59
10 92 3 33 8 68 11 77 3 9 7 27 10 40 3 13 7 30 9 38 2 8 4 27 4 41 1 14 10
36 21 49 11 13 20 24 20 26 0 1 -18 0 -40 -3 -54 -8 -80 15 -80 70 0 78 115
152 174 113 14 -8 27 -26 29 -38 4 -20 4 -20 6 4 1 32 -34 61 -75 61 -37 0
-133 -70 -140 -102 -10 -46 -12 -47 -13 -6 -1 29 -4 36 -12 28 -6 -6 -10 -29
-7 -51 2 -22 0 -38 -4 -36 -5 3 -8 25 -8 48 0 48 32 101 56 92 7 -3 22 6 32
19 11 13 22 21 26 18 3 -3 6 -2 6 3 0 5 25 7 55 6 33 -2 55 0 55 6 0 6 -5 12
-11 14 -16 5 -19 59 -5 77 8 11 8 13 -1 8 -15 -9 43 102 68 129 10 11 19 24
19 29 0 4 17 22 37 40 l36 31 -36 -4 c-20 -2 -37 0 -37 6 0 5 10 9 23 9 41 1
45 3 51 27 8 33 -13 268 -25 280 -6 6 -9 4 -9 -6 0 -9 -9 -23 -21 -31 -14 -10
-17 -17 -9 -22 7 -4 9 -17 6 -30 -3 -13 -1 -27 4 -30 6 -4 8 -11 4 -16 -8 -13
-7 -104 1 -129 4 -11 10 -18 15 -15 5 3 11 1 14 -4 4 -5 1 -13 -5 -17 -8 -5
-9 -3 -4 6 6 9 4 11 -5 5 -6 -4 -29 -9 -49 -11 -20 -2 -30 -1 -23 2 6 3 10 10
6 15 -3 5 -7 26 -9 47 -12 111 -34 221 -49 247 l-17 30 6 -51 c6 -55 -1 -70
-22 -53 -11 9 20 -87 43 -136 3 -5 -2 -1 -10 9 -9 11 -16 26 -16 34 0 7 -5 10
-10 7 -7 -4 -7 -11 -2 -18 13 -17 23 -47 14 -44 -4 1 -8 -1 -9 -5 -2 -5 0 -8
4 -7 14 1 20 -36 9 -50 -8 -11 -8 -13 0 -8 7 4 15 0 18 -9 3 -8 2 -12 -4 -9
-5 3 -8 -3 -7 -14 1 -16 5 -18 19 -10 14 7 18 6 18 -6 0 -15 -52 -33 -75 -26
-27 9 -41 6 -55 -9 -8 -9 -10 -9 -5 -1 9 12 7 12 -12 1 -12 -8 -20 -17 -17
-21 2 -4 -12 -10 -31 -13 -20 -4 -33 -11 -29 -17 3 -5 0 -17 -8 -26 -11 -14
-11 -16 2 -8 8 4 12 5 8 0 -4 -4 -3 -16 2 -25 7 -13 5 -21 -5 -30 -8 -7 -15
-11 -16 -9 -6 31 -6 38 2 33 5 -3 9 -1 9 4 0 12 -26 23 -34 15 -3 -4 -1 -12 5
-20 6 -7 8 -13 5 -13 -4 0 -2 -10 5 -21 7 -13 7 -19 1 -15 -6 3 -14 1 -17 -5
-4 -5 -13 -8 -21 -5 -8 3 -11 0 -7 -10 3 -7 10 -14 16 -14 6 0 7 -3 4 -7 -4
-3 1 -12 11 -20 16 -14 16 -14 -2 -9 -16 6 -17 4 -6 -9 7 -8 9 -15 5 -15 -4 0
-2 -7 5 -15 6 -8 9 -19 5 -26 -4 -6 -1 -15 6 -20 10 -6 5 -9 -17 -9 -48 0
-100 67 -88 115 3 14 3 37 -1 53 -7 25 -8 25 -15 7 -20 -50 21 -168 68 -194
11 -6 12 -12 4 -27 -11 -18 -11 -18 -12 1 0 11 -20 43 -44 70 -43 48 -44 49
-39 20 3 -20 1 -26 -4 -17 -7 9 -13 6 -21 -13 -7 -15 -17 -23 -23 -19 -8 4 -9
-3 -4 -25 8 -36 2 -38 -52 -11 -56 27 -61 39 -13 30 34 -6 40 -5 40 9 0 26
-48 67 -110 95 -42 18 -51 26 -38 31 11 4 42 -5 82 -23 l64 -30 -44 64 c-39
57 -47 83 -17 53 15 -15 43 -4 43 15 0 25 -70 66 -113 66 -45 0 -135 -30 -177
-60 -16 -12 -30 -18 -30 -14 0 4 -7 -1 -15 -12 -10 -12 -14 -14 -13 -5 4 21
30 51 40 45 4 -3 8 0 8 6 0 7 7 10 15 6 8 -3 14 0 12 7 -1 6 13 19 32 29 18 9
47 29 62 44 16 15 30 25 30 21 1 -4 2 -13 3 -19 1 -11 106 -42 114 -34 1 2 -2
15 -8 30 -5 15 -10 51 -10 79 0 36 -3 47 -10 37 -5 -8 -12 -12 -15 -8 -4 3 1
18 10 32 13 19 16 36 11 64 -10 53 -11 56 -20 70 -4 7 -9 26 -11 42 -5 35 -30
87 -57 117 -11 12 -17 26 -13 32 3 6 2 11 -4 11 -5 0 -15 16 -22 34 -7 19 -16
33 -21 30 -4 -3 -8 2 -8 11 0 9 -4 14 -9 11 -5 -3 -11 1 -15 9 -3 8 -15 15
-26 15 -13 0 -20 7 -20 18 0 11 -8 26 -17 35 -20 17 -133 69 -133 60 0 -2 8
-18 17 -34 16 -27 16 -29 -1 -48 -13 -15 -36 -20 -104 -25 -137 -10 -146 -10
-164 -2 -16 7 -18 3 -18 -32 0 -23 -3 -43 -7 -45 -5 -3 -7 16 -6 41 l2 47 -10
-45 c-6 -25 -12 -46 -13 -47 -3 -4 -280 37 -284 42 -2 2 -1 20 2 40 6 29 11
35 29 33 37 -5 32 16 -6 27 -78 22 -72 48 31 123 40 29 75 64 85 83 15 32 15
35 -6 68 -19 32 -20 34 -2 27 18 -7 18 -6 -1 15 -10 12 -30 26 -44 31 -14 6
-20 12 -13 15 6 2 30 -8 53 -23 37 -25 41 -31 36 -58 l-6 -31 19 23 19 22 67
-41 c59 -38 86 -46 71 -21 -4 7 -82 56 -232 144 -17 10 -38 18 -46 18 -15 0
-28 39 -28 86 0 23 3 24 77 24 76 0 287 16 331 26 21 4 22 9 22 98 l0 94 115
27 115 27 0 420 0 420 -66 71 c-75 81 -105 134 -133 238 -22 78 -35 103 -25
48 23 -129 46 -176 142 -292 l64 -77 -1 -407 c-1 -224 -3 -408 -4 -409 -6 -7
-209 -45 -219 -42 -6 2 29 12 78 23 127 26 134 29 134 64 0 20 -6 31 -17 34
-17 4 -17 5 0 6 16 1 17 25 17 365 l0 365 -54 58 c-118 128 -156 223 -156 393
0 132 -3 135 -168 195 -73 26 -126 29 -252 15z m161 -10 c10 -6 19 -15 19 -20
0 -6 -8 -5 -19 2 -14 8 -46 8 -137 -1 -405 -43 -544 -59 -507 -60 23 -1 148
10 278 24 129 14 263 25 298 23 l62 -3 5 -380 5 -380 5 370 c4 300 6 235 8
-341 2 -635 0 -713 -14 -725 -12 -10 -159 -12 -747 -10 -643 2 -735 4 -756 18
l-24 15 7 647 c4 355 11 650 16 655 13 13 293 48 1060 131 74 8 194 19 265 26
72 6 132 13 134 15 7 7 21 5 42 -6z m161 -56 c57 -29 92 -54 74 -54 -3 0 -40
17 -83 39 -43 21 -89 43 -103 50 -23 10 -22 11 10 5 19 -4 65 -22 102 -40z
m68 -823 l0 -650 -72 6 c-120 9 -151 21 -40 15 l102 -5 0 641 c0 353 2 642 5
642 3 0 5 -292 5 -649z m20 -741 l0 -80 -112 2 -113 2 108 3 107 4 0 74 c0 41
2 75 5 75 3 0 5 -36 5 -80z m-1414 58 c5 -7 2 -8 -7 -3 -8 5 -10 4 -6 0 12
-14 38 -15 31 -2 -5 9 -4 9 6 0 8 -8 20 -9 36 -3 13 5 24 7 24 4 0 -4 7 -1 15
6 12 10 15 10 15 0 0 -10 3 -10 15 0 16 13 18 9 15 -30 -2 -24 -1 -24 13 -5 9
11 13 23 11 27 -3 5 -1 8 5 8 17 0 25 -49 11 -65 -10 -12 -10 -15 3 -15 23 0
40 27 33 54 -8 32 25 41 53 14 25 -22 27 -38 6 -38 -8 0 -15 9 -15 20 0 11 -5
20 -11 20 -18 0 -5 -42 18 -57 20 -13 23 -12 39 12 16 25 16 26 -2 40 -10 8
-14 15 -9 16 40 5 79 -1 92 -14 19 -19 10 -47 -14 -46 -17 1 -17 2 0 6 9 2 17
8 17 13 0 5 -7 7 -15 4 -10 -4 -15 0 -15 16 0 12 -4 18 -10 15 -13 -8 -4 -56
12 -67 25 -16 63 -4 66 21 2 13 -1 28 -7 34 -21 21 -11 27 39 26 33 -2 51 -7
55 -17 5 -13 3 -13 -11 -1 -15 12 -16 11 -10 -8 4 -12 2 -31 -4 -43 -8 -16 -8
-20 3 -20 24 0 40 28 34 58 -6 28 -5 28 40 28 42 -1 47 -4 54 -28 4 -17 3 -28
-2 -28 -6 0 -8 -4 -5 -9 3 -5 -1 -11 -9 -15 -17 -6 -29 9 -19 26 4 6 3 8 -4 4
-6 -4 -12 5 -15 21 l-4 28 -2 -28 c-1 -21 8 -37 30 -58 l31 -29 -288 0 c-159
0 -353 3 -431 7 l-143 6 0 44 c0 38 3 43 23 44 12 1 27 0 32 -1 25 -7 72 -6
87 2 10 5 19 4 23 -2 3 -5 11 -10 16 -10 6 0 7 6 3 13 -5 7 0 6 11 -3 10 -8
16 -10 12 -3 -4 6 -1 14 5 16 7 3 14 6 15 6 1 1 5 -4 9 -11z m700 -15 c3 -16
10 -41 15 -58 7 -24 8 -20 4 20 -3 32 -2 45 4 36 7 -11 10 -9 14 10 3 19 5 16
7 -11 1 -19 6 -46 10 -60 6 -19 9 -12 11 35 l2 60 7 -60 7 -60 2 60 3 60 8
-48 c5 -27 12 -52 15 -55 4 -4 4 12 0 36 -4 28 -3 42 4 42 6 0 11 -6 12 -12 0
-7 4 -4 9 7 8 18 9 17 9 -7 1 -16 6 -28 11 -28 6 0 11 12 11 28 2 21 3 18 9
-13 4 -22 8 -30 9 -17 2 39 31 26 33 -15 1 -35 2 -34 8 12 4 28 8 40 8 28 3
-30 22 -40 22 -12 0 29 17 13 23 -21 4 -23 4 -23 6 5 2 26 3 27 11 10 7 -17 9
-17 9 -2 1 17 22 23 35 10 4 -5 12 -9 17 -9 5 -1 11 -3 14 -4 3 -1 11 -3 18
-4 6 -1 11 -7 9 -14 -1 -7 2 -12 8 -12 5 0 10 5 10 10 0 6 5 10 11 10 5 0 7
-4 4 -10 -3 -5 -1 -10 5 -10 6 0 8 -6 4 -12 -5 -9 -4 -10 4 -3 6 6 12 26 15
45 3 31 4 29 5 -11 l2 -46 -124 -7 c-163 -9 -356 2 -349 20 2 7 -5 33 -16 58
-19 45 -19 46 -1 46 13 0 22 -9 26 -27z m-101 -106 c72 -1 -81 -4 -340 -5
-259 -1 -475 2 -482 6 -10 6 500 6 822 -1z m550 -7 c-16 -4 -118 -7 -225 -7
l-195 1 175 6 c272 9 280 9 245 0z m-162 -112 c3 -32 13 -71 23 -87 10 -17 15
-33 11 -37 -8 -8 -50 36 -55 57 -4 13 -5 122 -3 144 3 25 19 -26 24 -77z
m-662 -5 c-17 22 -3 22 21 1 10 -9 31 -17 47 -18 16 -1 27 -4 25 -7 -2 -3 9
-17 24 -30 26 -23 26 -23 7 -1 l-19 23 27 -10 c15 -6 27 -8 27 -5 0 4 6 1 13
-5 8 -6 16 -9 19 -6 3 3 10 -1 16 -8 9 -10 8 -14 -3 -14 -8 0 -11 5 -8 11 3 6
3 8 -2 4 -4 -4 -15 -2 -24 4 -10 8 -9 4 3 -10 11 -12 16 -22 12 -22 -4 0 -4
-5 -1 -11 5 -7 15 -3 29 10 25 23 58 22 62 -3 2 -16 1 -16 -15 -2 -15 14 -18
14 -18 1 0 -8 4 -12 8 -9 4 2 11 0 14 -6 5 -8 11 -7 21 1 12 10 13 9 8 -6 -6
-14 -4 -16 6 -10 10 6 12 4 7 -8 -3 -9 1 -21 11 -29 15 -11 15 -11 5 3 -10 13
-10 16 2 16 8 0 12 -4 10 -8 -3 -3 2 -12 10 -19 8 -7 15 -9 15 -5 0 4 8 1 17
-6 11 -10 14 -10 9 -1 -4 7 -2 12 8 12 8 0 19 6 23 14 6 11 11 10 25 -8 12
-16 13 -27 6 -37 -8 -11 -9 -10 -4 4 4 11 2 16 -5 12 -6 -4 -9 -23 -8 -44 6
-83 -17 -100 -151 -108 -202 -12 -390 74 -390 179 0 16 9 46 20 68 11 22 20
50 20 62 0 13 3 33 6 46 l6 22 37 -27 c20 -15 30 -19 22 -10z m-137 -95 c-5
-7 -7 -27 -5 -45 1 -18 -1 -33 -6 -33 -4 0 -21 -12 -38 -26 -24 -20 -25 -23
-7 -14 36 17 37 5 3 -19 l-30 -22 -12 23 c-12 23 -10 26 47 66 11 7 2 4 -18
-7 -38 -20 -38 -20 -38 -1 0 13 18 32 53 55 59 39 61 40 51 23z m891 -36 c-3
-3 -11 0 -18 7 -9 10 -8 11 6 5 10 -3 15 -9 12 -12z m-877 -70 c5 -16 -64 -85
-77 -77 -6 3 7 21 27 40 20 19 31 35 24 35 -7 0 -10 5 -7 11 8 12 27 7 33 -9z
m27 -46 c12 -12 12 -17 -4 -38 -9 -12 -21 -32 -26 -43 -8 -19 -8 -19 -12 -2
-3 11 5 29 18 43 29 31 20 40 -15 13 -17 -13 -25 -27 -21 -37 5 -12 3 -13 -10
-2 -14 12 -12 17 17 47 37 38 35 37 53 19z m778 -16 c16 -16 25 -30 20 -30 -5
0 -22 14 -38 30 -16 17 -25 30 -19 30 5 0 22 -13 37 -30z m-33 -33 l25 -32
-37 29 c-41 31 -45 36 -25 35 6 0 23 -14 37 -32z m-41 -23 c12 -19 21 -38 21
-42 0 -12 -49 53 -50 66 0 20 7 14 29 -24z m-669 17 c0 -5 -7 -14 -15 -21 -8
-7 -15 -19 -15 -26 0 -8 -4 -14 -10 -14 -15 0 -12 17 6 45 16 25 34 33 34 16z
m21 -27 c-12 -15 -21 -33 -21 -40 0 -8 -4 -14 -10 -14 -13 0 -13 3 3 31 21 40
28 49 38 49 6 0 1 -12 -10 -26z m603 10 c10 -25 -1 -29 -14 -5 -6 12 -7 21 -1
21 5 0 12 -7 15 -16z m-558 -16 c-9 -13 -23 -36 -30 -52 -9 -19 -16 -24 -21
-17 -8 13 41 91 58 91 5 0 2 -10 -7 -22z m527 -20 c22 -55 15 -60 -12 -8 -23
45 -25 50 -13 50 5 0 16 -19 25 -42z m-489 7 c-4 -8 -10 -13 -15 -10 -4 3 -11
-10 -15 -30 -3 -19 -10 -32 -15 -30 -9 6 5 51 23 72 14 18 29 16 22 -2z m449
-30 c9 -25 13 -45 9 -45 -4 0 -15 20 -24 45 -10 25 -13 45 -8 45 4 0 15 -20
23 -45z m-432 -16 c-11 -24 -20 -36 -20 -27 -1 16 31 80 37 74 1 -2 -6 -23
-17 -47z m53 24 c-11 -47 -24 -76 -31 -70 -7 8 19 97 29 97 5 0 5 -12 2 -27z
m334 -15 c12 -47 8 -64 -6 -27 -19 51 -23 69 -14 69 5 0 14 -19 20 -42z m-303
-22 c-4 -25 -12 -46 -17 -46 -5 0 -7 8 -4 18 2 9 8 32 11 50 10 49 18 31 10
-22z m40 -12 c-3 -24 -11 -44 -17 -44 -10 0 -5 47 9 95 10 33 16 -2 8 -51z
m45 11 c0 -30 -4 -55 -10 -55 -11 0 -13 33 -4 79 9 46 14 38 14 -24z m49 -22
c1 -18 -3 -33 -9 -33 -6 0 -10 25 -9 58 1 43 3 51 9 32 4 -14 8 -40 9 -57z
m40 0 c1 -18 -3 -33 -9 -33 -6 0 -10 25 -9 58 1 43 3 51 9 32 4 -14 8 -40 9
-57z m90 -3 c0 -23 -1 -23 -8 -5 -5 11 -11 36 -15 55 l-6 35 15 -30 c8 -16 14
-41 14 -55z m175 64 c3 -8 2 -12 -4 -9 -6 3 -10 10 -10 16 0 14 7 11 14 -7z
m-220 -46 c4 -24 3 -38 -4 -38 -5 0 -10 19 -10 42 0 49 5 47 14 -4z m104 -100
c30 -30 -11 -85 -44 -57 -18 15 -18 34 2 53 19 19 26 20 42 4z m44 -12 c-3
-13 -1 -17 6 -12 9 5 9 0 2 -19 -14 -36 -14 -36 18 -33 21 2 28 -2 30 -19 3
-21 -1 -23 -35 -22 -36 1 -100 16 -77 18 5 1 20 15 33 32 21 28 21 32 7 54
-15 22 -14 24 3 22 13 -1 17 -7 13 -21z m68 4 c-17 -5 -19 -8 -7 -9 15 -1 15
-3 -3 -21 -22 -22 -35 -27 -23 -7 4 6 6 20 5 30 -3 13 3 17 25 16 l28 -1 -25
-8z m50 -3 c0 -7 -7 -22 -15 -33 -13 -17 -13 -16 -3 14 13 34 18 40 18 19z
m493 1 c12 -7 31 -13 42 -13 23 0 23 5 -3 -155 -19 -117 -112 -582 -118 -589
-2 -2 -15 4 -28 13 -14 9 -37 16 -51 16 -24 0 -36 24 -16 32 5 2 21 71 36 153
50 273 52 282 57 255 3 -14 6 -1 7 30 1 54 25 214 36 251 7 22 10 23 38 7z
m-115 -39 c-3 -8 -7 -3 -11 10 -4 17 -3 21 5 13 5 -5 8 -16 6 -23z m-418 1 c0
-5 -2 -10 -4 -10 -3 0 -8 5 -11 10 -3 6 -1 10 4 10 6 0 11 -4 11 -10z m50 -19
c0 -5 -7 -11 -15 -15 -15 -5 -20 5 -8 17 9 10 23 9 23 -2z m-201 -28 c2 -2 -5
-3 -17 -3 -14 0 -22 6 -22 16 0 14 3 15 18 3 9 -7 19 -15 21 -16z m558 -5 c-3
-7 -5 -2 -5 12 0 14 2 19 5 13 2 -7 2 -19 0 -25z m248 3 c0 -30 -14 -36 -40
-18 -25 19 -13 50 17 45 17 -2 23 -10 23 -27z m-600 -37 c0 -26 -3 -29 -31
-29 -30 -1 -31 1 -23 29 5 16 6 32 4 37 -3 4 7 4 22 0 23 -6 28 -13 28 -37z
m-165 6 c13 -8 13 -10 -2 -10 -9 0 -21 -6 -25 -14 -6 -10 -17 -13 -40 -8 -50
11 -27 32 42 40 6 1 17 -3 25 -8z m210 -15 c7 -9 8 -15 2 -15 -5 0 -12 7 -16
15 -3 8 -4 15 -2 15 2 0 9 -7 16 -15z m-130 1 c0 -3 -4 -8 -10 -11 -5 -3 -10
-1 -10 4 0 6 5 11 10 11 6 0 10 -2 10 -4z m170 0 c0 -3 -4 -8 -10 -11 -5 -3
-10 -1 -10 4 0 6 5 11 10 11 6 0 10 -2 10 -4z m495 -43 c-7 -17 -9 -25 -13
-80 -1 -13 -6 -23 -12 -23 -8 0 -8 28 0 50 1 3 1 15 0 28 -1 12 3 22 9 22 6 0
11 8 11 17 0 9 3 14 6 10 4 -3 3 -14 -1 -24z m-805 -4 c0 -5 -11 -9 -25 -9
-24 0 -32 10 -19 22 8 8 44 -3 44 -13z m128 11 c12 0 13 -3 5 -11 -13 -13 -53
-3 -53 13 0 5 7 7 16 4 9 -3 23 -6 32 -6z m253 3 c-11 -5 -11 -7 0 -14 11 -7
10 -9 -3 -9 -18 0 -23 11 -11 23 3 4 11 7 17 6 6 0 5 -3 -3 -6z m-191 -44 c0
-17 4 -28 8 -25 4 2 13 -4 20 -15 7 -11 8 -19 2 -19 -5 0 -10 -9 -10 -20 0
-11 4 -20 10 -20 5 0 6 7 3 17 -5 12 -3 14 7 8 9 -5 11 -4 6 3 -4 7 -1 12 8
12 19 0 19 1 5 -57 -10 -37 -9 -47 2 -54 11 -6 8 -9 -8 -9 -19 0 -23 5 -23 31
0 17 4 28 10 24 6 -3 10 -1 10 4 0 21 -29 11 -32 -11 -2 -12 -9 -23 -16 -24
-7 -1 -8 0 -2 3 5 2 10 16 10 30 0 20 -4 24 -19 20 -14 -3 -17 0 -13 15 2 11
10 22 17 24 10 4 10 12 2 35 -10 25 -13 27 -19 12 -6 -12 -6 -10 -2 7 3 14 6
30 6 37 2 25 18 0 18 -28z m300 26 c-6 -8 -9 -19 -5 -24 3 -7 0 -8 -9 -5 -12
5 -13 9 -3 25 6 10 16 19 21 19 4 0 3 -7 -4 -15z m-232 -6 c-2 -7 -17 -13 -32
-15 -31 -3 -24 11 9 19 11 3 22 5 23 6 2 0 2 -4 0 -10z m291 -18 c-3 -6 -10
-7 -18 -2 -7 5 -10 14 -6 21 9 14 29 -2 24 -19z m-419 -1 c0 -13 -20 -13 -40
0 -12 8 -9 10 13 10 15 0 27 -4 27 -10z m135 -24 c-16 -25 -44 -39 -29 -15 3
6 0 16 -7 21 -10 7 -8 8 7 3 15 -4 24 0 28 11 4 9 9 14 12 11 3 -3 -2 -17 -11
-31z m64 25 c9 -6 10 -11 2 -15 -6 -4 -11 -2 -11 4 0 7 -7 10 -15 6 -8 -3 -15
-1 -15 4 0 12 20 13 39 1z m61 -7 c0 -2 -7 -4 -15 -4 -8 0 -15 4 -15 10 0 5 7
7 15 4 8 -4 15 -8 15 -10z m202 -46 c-6 -6 -12 -6 -16 1 -4 6 -2 11 4 11 6 0
10 6 9 13 -3 27 4 40 8 13 3 -16 0 -33 -5 -38z m-559 44 c10 -15 -6 -62 -20
-62 -8 0 -12 -3 -10 -7 3 -5 -14 -6 -38 -5 -34 3 -42 7 -40 20 2 10 4 27 4 40
1 20 6 22 50 22 28 0 52 -3 54 -8z m392 -12 c8 0 17 -5 21 -11 5 -8 0 -10 -17
-6 -34 9 -45 -2 -52 -52 -7 -54 -13 -60 -61 -53 -26 3 -34 7 -25 13 11 7 10 9
-3 9 -14 0 -18 8 -18 35 0 41 24 58 71 48 21 -4 30 -3 26 5 -5 6 0 8 13 5 15
-4 20 0 21 13 0 11 3 14 6 7 2 -7 11 -13 18 -13z m-322 -30 c-3 -3 -8 1 -10 8
-3 6 -9 10 -14 7 -5 -4 -6 1 -3 10 6 14 8 14 19 -2 8 -10 11 -20 8 -23z m77
-2 c0 -4 -4 -8 -10 -8 -5 0 -10 -8 -10 -17 0 -13 -3 -14 -11 -6 -15 15 -5 40
15 40 9 0 16 -4 16 -9z m254 -36 c-5 -55 -13 -82 -25 -82 -6 0 -6 8 2 21 6 12
9 40 7 64 -2 29 1 41 8 38 7 -2 10 -20 8 -41z m-294 -16 c0 -3 -11 -6 -25 -6
-28 0 -31 5 -13 24 10 11 15 11 25 0 7 -7 13 -15 13 -18z m380 11 c0 -16 -6
-23 -21 -23 -18 0 -18 2 -5 12 9 6 16 16 16 23 0 6 2 11 5 11 3 0 5 -10 5 -23z
m1197 -24 c-4 -17 -4 -17 -12 0 -4 9 -4 25 0 35 8 16 8 16 12 0 3 -10 3 -26 0
-35z m-937 27 c0 -5 -5 -10 -11 -10 -5 0 -7 5 -4 10 3 6 8 10 11 10 2 0 4 -4
4 -10z m-763 -15 c8 -3 9 -15 3 -40 -5 -20 -10 -39 -13 -41 -2 -2 -27 1 -56 8
-51 11 -52 12 -45 42 3 17 8 34 10 38 4 6 74 1 101 -7z m173 -15 c0 -5 -5 -10
-11 -10 -5 0 -7 5 -4 10 3 6 8 10 11 10 2 0 4 -4 4 -10z m-80 -42 c0 -21 -11
-23 -28 -6 -8 8 -8 17 0 31 8 16 12 17 19 6 5 -8 9 -22 9 -31z m400 1 c0 -5
-4 -9 -10 -9 -5 0 -10 7 -10 16 0 8 5 12 10 9 6 -3 10 -10 10 -16z m-310 -19
c12 -7 12 -10 1 -10 -7 0 -11 -6 -8 -13 3 -8 -1 -14 -9 -14 -8 0 -14 4 -14 9
0 4 -7 8 -15 8 -8 0 -15 7 -15 15 0 17 37 20 60 5z m92 -15 c3 -14 1 -28 -3
-31 -5 -3 -9 9 -9 25 0 38 6 40 12 6z m122 6 c4 -5 -3 -7 -14 -4 -12 3 -20 0
-20 -6 0 -7 6 -9 13 -5 9 5 9 3 -1 -7 -11 -12 -14 -12 -22 1 -9 13 -10 13 -10
0 0 -8 -14 -21 -30 -28 -17 -8 -28 -18 -24 -23 3 -5 1 -9 -4 -9 -6 0 -12 6
-15 14 -4 10 2 16 16 18 12 2 21 9 20 16 -2 6 4 12 12 12 8 0 15 4 15 9 0 16
56 26 64 12z m-466 -38 c3 -30 1 -33 -25 -33 -44 0 -56 12 -43 44 8 22 15 27
38 24 22 -2 28 -8 30 -35z m314 18 c7 11 9 11 6 1 -5 -17 -23 -17 -24 0 -1 9
1 8 4 -1 3 -12 5 -12 14 0z m723 9 c-3 -5 -12 -10 -18 -10 -7 0 -6 4 3 10 19
12 23 12 15 0z m-895 -10 c0 -5 4 -9 9 -7 5 1 11 -2 13 -8 1 -5 -7 -11 -19
-13 -18 -3 -23 2 -23 17 0 12 5 21 10 21 6 0 10 -4 10 -10z m670 -10 c0 -11
-7 -20 -15 -20 -8 0 -15 5 -15 11 0 5 5 7 10 4 6 -3 10 1 10 9 0 9 2 16 5 16
3 0 5 -9 5 -20z m-564 -13 c8 3 14 0 14 -6 0 -6 -7 -11 -15 -11 -14 0 -19 -11
-16 -37 1 -7 -3 -13 -9 -13 -6 0 -8 5 -4 11 4 7 1 10 -7 7 -8 -3 -24 -1 -36 3
-16 6 -23 5 -23 -3 0 -6 -3 -8 -7 -5 -9 10 38 58 50 50 6 -4 8 0 4 11 -6 15
-5 16 14 2 12 -8 28 -12 35 -9z m774 -2 c-7 -9 -15 -13 -19 -10 -3 3 1 10 9
15 21 14 24 12 10 -5z m-220 -30 c0 -8 -7 -15 -15 -15 -13 0 -14 3 -3 15 16
18 18 18 18 0z m-525 -5 c3 -5 -1 -10 -10 -10 -9 0 -13 5 -10 10 3 6 8 10 10
10 2 0 7 -4 10 -10z m125 6 c0 -11 -19 -15 -25 -6 -3 5 1 10 9 10 9 0 16 -2
16 -4z m-285 -16 c3 -5 1 -10 -4 -10 -6 0 -11 5 -11 10 0 6 2 10 4 10 3 0 8
-4 11 -10z m865 4 c0 -8 -19 -13 -24 -6 -3 5 1 9 9 9 8 0 15 -2 15 -3z m-1025
-12 c6 -4 9 -14 9 -22 -1 -8 -2 -23 -3 -32 -1 -14 -10 -18 -36 -18 -40 0 -40
-1 -21 45 15 34 30 42 51 27z m291 -33 c-2 -17 -7 -34 -11 -37 -3 -3 -3 5 -1
19 2 13 5 30 5 37 1 6 4 12 7 12 3 0 3 -14 0 -31z m159 -8 c-8 -8 -21 -10 -34
-6 -27 8 -27 25 -1 25 11 0 20 5 20 10 0 6 6 5 14 -2 12 -11 12 -15 1 -27z
m-238 4 c1 -16 1 -16 -3 -2 -6 20 -20 22 -27 5 -3 -8 -6 -5 -6 5 -1 26 33 18
36 -8z m133 -12 c0 -14 -2 -15 -9 -4 -7 11 -9 11 -14 0 -4 -10 -6 -9 -6 4 -1
9 6 17 14 17 8 0 15 -8 15 -17z m467 -5 c-3 -8 -6 -5 -6 6 -1 11 2 17 5 13 3
-3 4 -12 1 -19z m-474 -25 c-7 -2 -21 -2 -30 0 -10 3 -4 5 12 5 17 0 24 -2 18
-5z m477 -8 c0 -8 -4 -15 -10 -15 -5 0 -7 7 -4 15 4 8 8 15 10 15 2 0 4 -7 4
-15z m-320 -5 c0 -5 -8 -10 -17 -10 -15 0 -16 2 -3 10 19 12 20 12 20 0z m500
6 c0 -2 -8 -10 -17 -17 -16 -13 -17 -12 -4 4 13 16 21 21 21 13z m-860 -15 c0
-5 -7 -14 -15 -21 -18 -15 -42 1 -31 19 8 13 46 15 46 2z m30 -23 c0 -22 -17
-41 -30 -33 -8 5 -7 12 6 26 20 22 24 23 24 7z m87 -12 c10 3 26 -1 37 -9 16
-12 16 -14 2 -14 -9 0 -16 5 -16 10 0 5 -7 4 -15 -3 -13 -10 -19 -10 -35 5
-11 10 -20 22 -20 27 0 5 7 3 15 -5 8 -9 23 -13 32 -11z m120 18 c-3 -3 -12
-4 -19 -1 -8 3 -5 6 6 6 11 1 17 -2 13 -5z m-412 -14 c3 -5 1 -10 -4 -10 -6 0
-11 5 -11 10 0 6 2 10 4 10 3 0 8 -4 11 -10z m52 -25 c13 -43 6 -47 -8 -5 -6
16 -15 27 -20 24 -5 -3 -9 0 -9 5 0 26 28 8 37 -24z m426 28 c-7 -2 -19 -2
-25 0 -7 3 -2 5 12 5 14 0 19 -2 13 -5z m60 -10 c-7 -2 -21 -2 -30 0 -10 3 -4
5 12 5 17 0 24 -2 18 -5z m-122 -18 c-1 -15 -24 -12 -29 3 -3 9 2 13 12 10 10
-1 17 -7 17 -13z m-410 -15 c-1 -8 -4 -25 -5 -37 -1 -18 -7 -23 -28 -23 -30 0
-40 19 -10 21 10 0 12 3 5 6 -14 5 -17 35 -6 47 13 12 48 1 44 -14z m959 16
c0 -2 -8 -10 -17 -17 -16 -13 -17 -12 -4 4 13 16 21 21 21 13z m-133 -28 c-3
-8 -6 -5 -6 6 -1 11 2 17 5 13 3 -3 4 -12 1 -19z m-570 -5 c4 -11 -26 -27 -35
-19 -2 3 -2 12 2 21 6 18 27 16 33 -2z m303 8 c0 -11 -26 -22 -34 -14 -12 12
-5 23 14 23 11 0 20 -4 20 -9z m-475 -56 l-15 -40 2 40 c2 47 7 60 19 48 4 -4
2 -26 -6 -48z m347 33 c-7 -7 -12 -8 -12 -2 0 14 12 26 19 19 2 -3 -1 -11 -7
-17z m1 -15 c108 -17 109 -17 103 -43 -21 -97 -56 -243 -59 -246 -6 -7 -219
31 -238 42 -6 3 34 217 46 252 6 16 20 15 148 -5z m383 -5 c0 -12 -8 -23 -16
-25 -12 -4 -12 -2 -2 5 7 5 12 13 11 18 -2 12 0 24 5 24 2 0 3 -10 2 -22z
m-945 -5 c13 -16 12 -17 -3 -4 -17 13 -22 21 -14 21 2 0 10 -8 17 -17z m737
-5 c-2 -6 -14 -15 -26 -19 -20 -8 -21 -6 -12 11 11 21 44 28 38 8z m-450 -15
c-5 -26 -38 -29 -38 -4 0 15 6 21 21 21 14 0 19 -5 17 -17z m828 5 c-3 -21
-17 -39 -26 -33 -5 3 -13 -3 -19 -12 -5 -10 -12 -15 -16 -12 -5 6 48 69 58 69
3 0 4 -6 3 -12z m-1145 -15 c13 -16 12 -17 -3 -4 -17 13 -22 21 -14 21 2 0 10
-8 17 -17z m137 10 c-10 -2 -26 -2 -35 0 -10 3 -2 5 17 5 19 0 27 -2 18 -5z
m279 -15 c-3 -8 -6 -5 -6 6 -1 11 2 17 5 13 3 -3 4 -12 1 -19z m802 -23 c-35
-25 -76 -59 -90 -77 -14 -17 -32 -29 -39 -26 -16 5 45 78 65 78 7 0 19 7 26
17 18 22 70 53 88 53 8 0 -14 -20 -50 -45z m-1093 18 c-14 -4 -16 -7 -6 -13 9
-6 11 -21 6 -54 -7 -42 -9 -46 -29 -40 -12 3 -23 8 -25 9 -1 1 3 25 10 54 10
46 14 51 37 50 20 -1 21 -3 7 -6z m-182 -19 c3 -8 2 -12 -4 -9 -6 3 -10 10
-10 16 0 14 7 11 14 -7z m286 -20 c0 -17 -22 -14 -28 4 -2 7 3 12 12 12 9 0
16 -7 16 -16z m135 -15 c2 -17 0 -18 -13 -5 -8 8 -11 19 -7 26 9 15 18 5 20
-21z m480 -36 c-4 -32 -18 -118 -31 -192 -13 -74 -21 -137 -19 -140 19 -18 50
115 71 299 8 70 14 81 40 74 20 -5 20 -6 -2 -112 -13 -59 -23 -131 -23 -160
-1 -29 -4 -51 -8 -49 -5 3 -6 -15 -5 -39 l4 -43 -33 9 c-19 6 -47 10 -62 10
-22 0 -27 4 -23 18 3 9 10 49 16 87 11 70 44 230 56 273 13 45 25 22 19 -35z
m-83 15 c-8 -8 -9 -4 -5 13 4 13 8 18 11 10 2 -7 -1 -18 -6 -23z m-364 -3 c1
-14 -2 -25 -7 -25 -5 0 -8 11 -8 25 0 14 2 25 6 25 4 0 8 -11 9 -25z m557 5
c3 -5 1 -10 -4 -10 -6 0 -11 5 -11 10 0 6 2 10 4 10 3 0 8 -4 11 -10z m-750
-19 c-5 -16 1 -20 37 -26 55 -9 56 -10 51 -38 l-5 -24 -66 16 c-37 8 -69 16
-71 18 -3 2 50 71 57 72 2 1 1 -8 -3 -18z m505 5 c0 -3 -4 -8 -10 -11 -5 -3
-10 -1 -10 4 0 6 5 11 10 11 6 0 10 -2 10 -4z m947 -53 c-3 -10 -5 -2 -5 17 0
19 2 27 5 18 2 -10 2 -26 0 -35z m213 43 c0 -2 -8 -10 -17 -17 -16 -13 -17
-12 -4 4 13 16 21 21 21 13z m-435 -36 c3 -5 -3 -10 -14 -10 -12 0 -21 -4 -21
-10 0 -5 -5 -10 -11 -10 -5 0 -7 5 -3 12 4 6 -14 0 -40 -15 -25 -14 -44 -22
-41 -16 11 18 -8 9 -26 -13 -11 -11 -19 -17 -19 -13 0 5 -7 0 -16 -11 -8 -10
-13 -13 -9 -6 3 6 1 12 -4 12 -6 0 -11 -8 -12 -17 0 -12 -2 -13 -6 -5 -7 19
36 57 82 73 22 7 43 12 48 11 4 -1 7 2 7 7 0 17 76 26 85 11z m-1327 -23 c2
-10 -3 -17 -12 -17 -18 0 -29 16 -21 31 9 14 29 6 33 -14z m1597 -95 c15 -12
24 -22 20 -22 -5 0 2 -12 16 -27 13 -14 19 -23 13 -20 -6 4 -10 -3 -9 -16 1
-12 -4 -29 -12 -39 -11 -12 -11 -18 -2 -24 7 -4 10 -3 6 3 -6 10 12 31 40 47
19 11 24 -11 6 -25 -14 -12 -16 -12 -8 1 8 13 6 13 -8 1 -12 -10 -14 -18 -7
-31 8 -14 4 -26 -18 -51 -15 -18 -21 -29 -13 -24 11 6 13 4 7 -11 -4 -10 -9
-27 -12 -38 -2 -10 -11 -28 -21 -39 -10 -11 -13 -17 -7 -14 7 4 19 -4 28 -18
9 -14 13 -25 10 -25 -4 0 1 -10 12 -22 l19 -23 -22 19 c-13 11 -23 16 -23 12
0 -4 -5 -4 -10 -1 -8 5 -8 11 0 20 7 8 7 15 1 19 -5 4 -13 1 -18 -6 -11 -19
-13 -39 -2 -32 9 5 13 -9 10 -33 -1 -7 2 -13 8 -13 5 0 8 -7 7 -17 -3 -17 -46
-30 -46 -14 0 6 9 8 20 6 17 -3 19 -1 10 16 -6 11 -8 25 -5 32 4 6 -1 3 -9 -7
-9 -11 -16 -24 -16 -29 0 -4 -5 -5 -10 -2 -6 4 -7 11 -4 17 4 7 2 8 -5 4 -9
-6 -9 -11 -1 -22 9 -10 7 -19 -8 -38 -11 -14 -22 -23 -25 -20 -3 3 -8 0 -13
-7 -4 -8 -3 -10 4 -5 16 10 15 -6 0 -24 -10 -11 -9 -11 6 0 18 14 18 13 11
-10 l-8 -25 21 25 c15 18 17 28 10 38 -8 9 -8 16 2 25 10 10 12 9 7 -5 -8 -23
2 -23 20 0 10 13 10 9 -1 -15 -9 -17 -20 -35 -26 -38 -6 -4 -8 -11 -5 -16 4
-5 1 -10 -4 -10 -6 -1 -17 -2 -23 -3 -7 0 -13 -7 -13 -15 0 -8 -7 -16 -15 -18
-13 -4 -13 -3 0 6 13 9 13 11 1 11 -11 0 -9 4 5 15 10 8 15 14 9 14 -5 1 -21
-8 -35 -19 -17 -14 -19 -18 -6 -14 16 6 17 4 7 -14 -9 -18 -9 -21 3 -16 8 3
16 1 20 -4 4 -6 -24 -9 -41 -3 -9 3 -18 -2 -16 -9 4 -12 -41 -2 -45 10 -2 5
-10 10 -17 10 -23 0 -82 78 -95 126 -25 88 4 194 78 286 16 21 60 98 97 172
l68 135 27 -38 c15 -21 40 -48 55 -59z m-945 54 c0 -16 -18 -31 -27 -22 -8 8
5 36 17 36 5 0 10 -6 10 -14z m-501 -24 c30 -4 56 -12 58 -19 3 -8 -6 -9 -34
-2 -21 5 -47 8 -58 8 -11 -1 4 -7 33 -14 68 -17 81 -29 22 -20 -160 24 -191
34 -172 58 10 12 21 13 55 5 23 -5 66 -12 96 -16z m-179 -25 c0 -18 -2 -19
-10 -7 -13 20 -13 43 0 35 6 -3 10 -16 10 -28z m330 8 c0 -14 -4 -25 -10 -25
-5 0 -10 11 -10 25 0 14 5 25 10 25 6 0 10 -11 10 -25z m285 5 c3 -5 2 -10 -4
-10 -5 0 -13 5 -16 10 -3 6 -2 10 4 10 5 0 13 -4 16 -10z m-155 -20 c0 -5 -4
-10 -10 -10 -5 0 -10 5 -10 10 0 6 5 10 10 10 6 0 10 -4 10 -10z m-460 -23
c10 -4 8 -6 -7 -6 -16 -1 -23 5 -23 17 0 10 3 13 8 6 4 -6 14 -14 22 -17z
m430 13 c0 -5 -4 -10 -10 -10 -5 0 -10 5 -10 10 0 6 5 10 10 10 6 0 10 -4 10
-10z m160 -4 c0 -3 -4 -8 -10 -11 -5 -3 -10 -1 -10 4 0 6 5 11 10 11 6 0 10
-2 10 -4z m663 -23 c8 3 13 -3 14 -14 1 -10 -1 -18 -5 -18 -23 4 -38 -6 -77
-45 -24 -25 -40 -48 -36 -52 3 -4 1 -4 -6 -1 -18 11 -9 34 26 71 44 46 37 65
-12 32 -41 -28 -50 -22 -14 9 12 10 23 19 24 18 11 -6 41 12 36 21 -3 6 3 3
15 -8 12 -10 27 -16 35 -13z m-722 0 c-12 -8 -25 -13 -28 -10 -9 10 5 23 28
24 l22 2 -22 -16z m-411 -21 c91 -16 95 -18 98 -44 l3 -28 -38 14 c-21 7 -66
17 -101 21 -65 7 -94 24 -45 26 21 1 23 3 8 6 -22 5 -46 24 -29 22 5 0 52 -8
104 -17z m521 -9 c-12 -20 -14 -14 -5 12 4 9 9 14 11 11 3 -2 0 -13 -6 -23z
m-317 9 c3 -5 -1 -9 -9 -9 -8 0 -15 4 -15 9 0 4 4 8 9 8 6 0 12 -4 15 -8z
m119 -11 c13 -1 16 -7 12 -24 -8 -30 -13 -59 -14 -74 -1 -15 -41 -18 -41 -3 0
5 -6 7 -14 4 -10 -4 -13 7 -13 48 0 59 -6 55 70 49z m-462 -22 c-2 -8 -6 -27
-9 -42 -4 -28 -4 -29 37 -26 22 2 41 -1 40 -6 0 -6 -12 -9 -27 -8 -21 2 -23 0
-12 -7 14 -9 7 -12 -16 -9 -14 2 -22 -26 -13 -42 13 -25 11 -39 -4 -33 -8 3
-13 14 -13 26 1 11 -4 23 -10 25 -7 2 -10 -5 -7 -19 3 -15 -2 -27 -15 -35 -17
-10 -19 -9 -15 7 3 11 8 18 12 16 3 -2 7 17 7 43 2 63 22 133 37 128 7 -3 10
-11 8 -18z m1719 17 c0 -2 -8 -10 -17 -17 -16 -13 -17 -12 -4 4 13 16 21 21
21 13z m-1381 -38 c-2 -18 -8 -39 -13 -47 -8 -11 -8 -13 2 -7 6 4 12 2 12 -3
0 -6 -6 -12 -12 -12 -7 -1 3 -5 22 -9 l35 -8 -35 1 c-32 2 -35 5 -35 32 1 17
5 41 9 54 6 16 5 21 -3 17 -6 -4 -11 -2 -11 3 0 6 7 11 16 11 11 0 15 -8 13
-32z m941 13 c-15 -29 -12 -41 8 -34 16 5 16 5 1 -11 -21 -22 -75 -31 -57 -9
9 11 13 12 21 1 6 -9 7 -8 3 5 -3 10 1 29 10 43 19 29 29 32 14 5z m-723 -28
c-3 -10 -5 -4 -5 12 0 17 2 24 5 18 2 -7 2 -21 0 -30z m73 11 c0 -8 -4 -12
-10 -9 -5 3 -10 10 -10 16 0 5 5 9 10 9 6 0 10 -7 10 -16z m-596 -16 c-3 -4
-12 -8 -20 -8 -8 0 -14 4 -14 8 0 4 9 8 19 8 11 0 17 -4 15 -8z m1712 -5 c-3
-20 -33 -26 -40 -8 -3 9 0 12 8 9 8 -3 17 -1 21 5 9 16 14 13 11 -6z m-1118
-48 c-1 -25 -5 -45 -10 -45 -5 0 -3 -10 3 -22 11 -21 11 -22 -4 -10 -13 11
-16 10 -20 -5 -3 -10 -3 0 0 21 5 36 8 58 12 94 0 6 5 12 10 12 5 0 9 -20 9
-45z m-427 19 c4 -2 4 -15 1 -29 -6 -33 -42 -35 -42 -2 0 13 -6 29 -12 36 -11
10 -7 11 17 5 17 -4 33 -8 36 -10z m1199 6 c-8 -5 -22 -9 -30 -9 -10 0 -8 3 5
9 27 12 43 12 25 0z m-880 -14 c0 -3 -4 -8 -10 -11 -5 -3 -10 -1 -10 4 0 6 5
11 10 11 6 0 10 -2 10 -4z m1219 -13 c-6 -7 -15 -11 -19 -8 -5 3 -12 -4 -15
-16 -5 -14 0 -29 17 -47 l23 -27 -27 24 c-27 24 -40 17 -16 -7 7 -7 10 -12 8
-13 -3 0 -13 -2 -22 -4 -12 -2 -15 2 -11 18 2 12 6 30 7 39 3 23 32 55 51 55
11 0 12 -4 4 -14z m-1642 1 c-3 -3 -12 -4 -19 -1 -8 3 -5 6 6 6 11 1 17 -2 13
-5z m53 -8 c0 -19 -41 -28 -89 -20 -33 5 -40 3 -44 -12 -4 -16 -5 -17 -6 -2
-2 26 32 40 65 28 22 -9 29 -8 36 5 11 19 38 20 38 1z m397 -38 c-2 -13 -4 -5
-4 17 -1 22 1 32 4 23 2 -10 2 -28 0 -40z m137 17 c-3 -8 -12 -11 -20 -8 -15
5 -18 16 -8 26 11 10 33 -4 28 -18z m-421 -5 c-8 -30 -21 -33 -19 -5 0 14 6
25 13 25 6 0 9 -9 6 -20z m170 13 c-7 -2 -19 -2 -25 0 -7 3 -2 5 12 5 14 0 19
-2 13 -5z m151 -2 c3 -5 -1 -11 -9 -14 -9 -4 -12 -1 -8 9 6 16 10 17 17 5z
m509 -81 c-53 -94 -62 -140 -38 -195 l18 -40 11 37 c6 20 15 40 20 45 5 5 6 0
2 -12 -4 -11 -10 -47 -13 -80 -5 -56 -3 -64 20 -88 30 -34 37 -23 37 63 0 32
4 61 9 65 6 3 7 -24 4 -68 -7 -87 13 -168 58 -237 l30 -45 -40 42 c-26 26 -45
59 -53 87 -7 28 -20 48 -33 54 -19 9 -21 6 -24 -27 -6 -72 -3 -112 13 -136 20
-31 20 -35 -1 -35 -21 0 -103 92 -103 115 0 9 10 29 22 45 15 21 22 45 22 82
1 29 5 56 10 60 5 3 -3 23 -19 45 -39 51 -37 87 13 195 41 88 61 119 74 112 3
-2 -14 -40 -39 -84z m-570 73 c-7 -2 -19 -2 -25 0 -7 3 -2 5 12 5 14 0 19 -2
13 -5z m792 -3 c-3 -5 -12 -10 -18 -10 -7 0 -6 4 3 10 19 12 23 12 15 0z
m-995 -14 c0 -8 -4 -17 -10 -21 -5 -3 -7 -12 -3 -20 3 -8 0 -15 -6 -15 -6 0
-11 16 -11 35 0 24 5 35 15 35 8 0 15 -6 15 -14z m40 5 c0 -6 -4 -13 -10 -16
-5 -3 -10 1 -10 9 0 9 5 16 10 16 6 0 10 -4 10 -9z m-280 -11 c0 -5 -5 -10
-11 -10 -5 0 -7 5 -4 10 3 6 8 10 11 10 2 0 4 -4 4 -10z m54 -43 c3 -26 2 -47
-2 -47 -4 0 -8 10 -9 22 -1 11 -8 25 -15 30 -10 8 -10 11 0 15 6 2 12 12 12
21 0 32 10 4 14 -41z m273 47 c-3 -3 -12 -4 -19 -1 -8 3 -5 6 6 6 11 1 17 -2
13 -5z m83 -8 c20 -1 24 -6 22 -26 -1 -13 -8 -28 -15 -32 -9 -6 -9 -8 1 -8 6
0 12 -5 12 -11 0 -6 -7 -9 -15 -5 -11 4 -15 -2 -15 -20 0 -24 -3 -25 -27 -19
-16 4 -75 16 -132 26 -83 15 -106 16 -113 7 -6 -10 -8 -9 -8 2 0 39 13 42 106
26 131 -23 168 -22 182 8 9 20 8 26 -6 32 -22 9 -29 11 -47 13 -8 0 -15 6 -15
12 0 7 8 9 23 4 12 -4 33 -8 47 -9z m165 4 c3 -5 1 -10 -4 -10 -6 0 -11 5 -11
10 0 6 2 10 4 10 3 0 8 -4 11 -10z m100 0 c3 -6 -4 -10 -17 -10 -18 0 -20 2
-8 10 19 12 18 12 25 0z m471 -50 c-31 -29 -68 -72 -83 -96 -39 -61 -50 -55
-17 7 25 46 140 156 151 145 2 -2 -21 -27 -51 -56z m-1176 33 c0 -5 -4 -14 -9
-21 -6 -10 -10 -9 -14 7 -3 14 0 21 9 21 8 0 14 -3 14 -7z m30 -13 c0 -5 -4
-10 -10 -10 -5 0 -10 5 -10 10 0 6 5 10 10 10 6 0 10 -4 10 -10z m100 -11 c0
-5 -7 -9 -15 -9 -8 0 -15 7 -15 15 0 9 6 12 15 9 8 -4 15 -10 15 -15z m247 15
c-3 -3 -12 -4 -19 -1 -8 3 -5 6 6 6 11 1 17 -2 13 -5z m891 -45 c-12 -24 -29
-50 -38 -57 -13 -10 -12 -11 5 -6 16 6 18 4 8 -6 -6 -7 -9 -18 -6 -26 2 -7 -5
-23 -17 -36 l-22 -23 17 34 c16 31 16 33 0 28 -11 -5 -14 -3 -8 6 4 6 8 17 9
22 2 15 66 117 70 112 2 -1 -6 -23 -18 -48z m-313 -33 c10 -14 16 -29 13 -31
-8 -8 -46 39 -48 60 -4 37 2 50 10 24 4 -14 15 -38 25 -53z m-1010 34 c0 -18
-6 -26 -23 -28 -24 -4 -38 18 -28 44 3 9 15 14 28 12 17 -2 23 -10 23 -28z
m-718 5 c0 -8 -4 -12 -9 -9 -5 3 -6 10 -3 15 9 13 12 11 12 -6z m1453 6 c0 -6
-5 -13 -10 -16 -6 -4 -8 -11 -5 -16 4 -5 1 -9 -5 -9 -7 0 -9 7 -6 16 3 9 6 20
6 25 0 5 5 9 10 9 6 0 10 -4 10 -9z m-671 -38 l-2 -38 -7 35 c-4 21 -8 27 -9
14 0 -12 -9 -25 -18 -29 -15 -5 -16 -4 -5 6 6 7 12 21 12 31 0 10 7 18 15 18
11 0 15 -10 14 -37z m45 10 c-10 -40 -14 -41 -14 -5 0 18 5 32 10 32 6 0 8
-11 4 -27z m481 17 c3 -5 1 -10 -4 -10 -6 0 -11 5 -11 10 0 6 2 10 4 10 3 0 8
-4 11 -10z m185 0 c0 -5 -7 -7 -15 -4 -8 4 -15 8 -15 10 0 2 7 4 15 4 8 0 15
-4 15 -10z m925 2 c-15 -10 -12 -38 4 -34 7 1 9 -2 6 -9 -5 -7 -15 -3 -31 12
-27 25 -25 34 8 36 12 1 18 -1 13 -5z m-1618 -34 c-3 -7 -5 -2 -5 12 0 14 2
19 5 13 2 -7 2 -19 0 -25z m610 10 c-3 -8 -6 -5 -6 6 -1 11 2 17 5 13 3 -3 4
-12 1 -19z m-522 -9 c-5 -16 -4 -19 5 -14 8 5 11 3 8 -6 -3 -8 -13 -14 -23
-14 -10 0 -20 6 -23 14 -3 8 0 11 7 7 10 -6 15 6 12 27 0 4 4 7 10 7 6 0 8 -9
4 -21z m594 -2 c12 -15 12 -17 -3 -11 -9 3 -16 13 -16 22 0 8 1 13 3 11 1 -2
9 -12 16 -22z m-189 -29 c0 -6 -7 -8 -15 -4 -8 3 -15 0 -15 -7 0 -8 -4 -7 -10
3 -6 9 -5 17 2 21 14 9 38 0 38 -13z m44 7 c-4 -8 -10 -15 -14 -15 -4 0 -4
-16 0 -35 4 -20 4 -35 -1 -35 -5 0 -9 6 -10 13 0 10 -2 10 -6 0 -2 -7 -12 -13
-21 -13 -13 0 -14 2 -4 9 8 4 16 27 19 50 4 31 10 41 24 41 12 0 16 -5 13 -15z
m70 0 c3 -8 1 -15 -4 -15 -6 0 -10 7 -10 15 0 8 2 15 4 15 2 0 6 -7 10 -15z
m-459 -5 c8 -13 -5 -13 -25 0 -13 8 -13 10 2 10 9 0 20 -4 23 -10z m433 -18
c3 -17 0 -20 -13 -16 -13 6 -14 8 -3 15 10 7 10 9 1 9 -7 0 -13 5 -13 11 0 20
25 3 28 -19z m87 18 c3 -5 1 -10 -4 -10 -6 0 -11 5 -11 10 0 6 2 10 4 10 3 0
8 -4 11 -10z m-338 -6 c-3 -3 -12 -4 -19 -1 -8 3 -5 6 6 6 11 1 17 -2 13 -5z
m8 -29 c11 -2 24 -4 28 -4 5 -1 5 -5 2 -11 -3 -5 -18 -7 -33 -5 -111 17 -161
28 -157 34 3 6 74 0 160 -14z m137 -10 c-8 -16 -9 -16 -15 -1 -4 10 -3 15 3
11 6 -3 10 -1 10 6 0 7 3 10 6 6 3 -3 2 -13 -4 -22z m181 18 c-7 -2 -21 -2
-30 0 -10 3 -4 5 12 5 17 0 24 -2 18 -5z m1 -19 c20 -8 21 -53 1 -60 -8 -4
-22 -1 -30 6 -18 15 -20 46 -2 53 6 3 13 6 14 6 1 1 8 -2 17 -5z m-224 -14 c0
-5 -8 -10 -17 -10 -15 0 -16 2 -3 10 19 12 20 12 20 0z m782 -49 c1 -17 6 -31
12 -32 6 0 0 -5 -13 -10 -15 -6 -28 -6 -34 0 -11 11 0 51 14 51 5 0 9 8 9 17
0 30 11 6 12 -26z m-45 -73 c-3 -8 -6 -5 -6 6 -1 11 2 17 5 13 3 -3 4 -12 1
-19z m86 -19 l27 -41 -25 -30 c-28 -33 -33 -30 -9 7 9 14 13 32 9 42 -6 16 -9
14 -22 -10 -8 -16 -17 -27 -20 -24 -2 3 3 19 11 36 23 43 2 48 -24 6 -23 -37
-38 -49 -20 -16 5 11 14 31 20 45 13 35 22 33 53 -15z m-1116 7 c0 -8 -6 -12
-15 -8 -11 4 -13 1 -7 -8 6 -9 4 -11 -5 -5 -10 6 -9 11 5 22 23 16 22 16 22
-1z m1020 -28 c-3 -8 -6 -5 -6 6 -1 11 2 17 5 13 3 -3 4 -12 1 -19z m187 -69
c-4 -6 -13 -4 -24 6 -17 16 -19 15 -34 -12 -18 -33 -20 -28 -5 15 11 31 11 31
40 16 16 -8 27 -19 23 -25z m347 10 c-5 -13 -10 -19 -10 -12 -1 7 -9 10 -18 7
-13 -4 -11 0 6 15 28 26 35 22 22 -10z m16 -21 c-3 -8 -6 -5 -6 6 -1 11 2 17
5 13 3 -3 4 -12 1 -19z m-81 -3 c-11 -8 -25 -15 -30 -15 -6 1 0 7 14 15 32 19
40 18 16 0z m-2156 -25 c21 13 27 12 27 -4 0 -8 -6 -12 -15 -9 -12 5 -12 2 -3
-18 10 -20 10 -21 -1 -9 -7 9 -20 14 -30 12 -9 -2 -20 2 -24 9 -4 8 -3 9 4 5
8 -4 12 0 12 11 0 12 3 14 8 6 5 -8 13 -9 22 -3z"/>
<path d="M2835 4234 c-66 -7 -183 -20 -260 -29 -171 -19 -276 -31 -420 -45
-60 -6 -153 -18 -205 -25 -52 -8 -149 -19 -215 -25 -66 -6 -124 -15 -130 -21
-7 -7 4 -9 35 -5 25 3 74 8 110 11 36 3 138 15 226 26 89 10 204 23 255 29 96
9 369 39 605 65 72 8 147 15 167 15 l35 0 6 -82 c4 -46 5 -360 3 -698 l-4
-615 -274 -7 c-439 -10 -1160 -2 -1171 14 -5 7 -8 294 -7 636 2 622 2 624 23
632 14 6 16 9 6 9 -40 2 -40 -1 -40 -661 0 -636 0 -637 21 -648 15 -8 225 -11
740 -9 l719 3 0 35 c0 20 1 304 3 631 2 327 1 636 -2 685 l-6 90 -50 1 c-27 1
-104 -4 -170 -12z"/>
<path d="M2265 4199 c-38 -5 -169 -21 -290 -35 -288 -33 -346 -41 -310 -43 34
-1 514 53 645 73 95 15 63 18 -45 5z"/>
<path d="M2805 4154 c-77 -7 -225 -22 -330 -33 -104 -12 -280 -30 -390 -41
-245 -25 -424 -48 -436 -56 -5 -3 -9 -242 -9 -564 0 -499 2 -558 16 -564 9 -3
309 -6 668 -6 494 0 655 3 664 12 9 9 12 162 12 628 0 637 0 642 -39 639 -9
-1 -79 -8 -156 -15z m176 -31 c2 -16 3 -292 1 -615 -3 -491 -6 -587 -17 -592
-8 -3 -303 -6 -656 -7 -531 -1 -643 1 -651 12 -14 20 -2 1080 12 1089 14 9
385 53 401 48 7 -2 -41 -10 -107 -17 -117 -13 -274 -37 -280 -44 -2 -2 -5
-241 -6 -533 -3 -523 -3 -529 17 -529 25 0 47 14 39 26 -3 5 -7 18 -9 30 -3
17 -2 19 10 9 8 -7 13 -16 10 -19 -2 -4 3 -8 11 -8 8 0 13 6 10 13 -3 7 7 25
22 41 26 27 40 59 21 47 -5 -3 -6 -11 -2 -17 4 -7 0 -6 -10 2 -17 13 -14 36 4
26 5 -4 9 2 10 12 0 15 2 14 9 -4 11 -28 49 -52 92 -59 l33 -6 -3 44 c-3 39 1
50 45 108 70 94 285 321 484 510 95 91 184 178 198 194 105 118 103 117 170
67 31 -23 33 -24 23 -5 -13 25 -10 50 8 67 12 10 12 9 1 -5 -7 -10 -11 -18 -8
-18 3 0 21 23 41 50 20 28 41 48 45 45 5 -3 7 5 3 17 -3 14 -2 19 6 14 7 -4
12 -3 12 3 0 19 -18 21 -99 11 -44 -6 -131 -15 -193 -20 -62 -5 -186 -16 -276
-25 -90 -9 -173 -15 -185 -13 -12 2 16 7 63 12 47 4 141 14 210 21 69 8 193
19 275 25 83 7 152 14 154 16 2 2 17 4 32 4 22 0 27 -5 30 -27z m-808 -60
c-13 -2 -35 -2 -50 0 -16 2 -5 4 22 4 28 0 40 -2 28 -4z m371 -11 c3 -5 -1 -9
-9 -9 -8 0 -12 4 -9 9 3 4 7 8 9 8 2 0 6 -4 9 -8z m15 -68 c56 -6 60 -8 41
-21 -11 -8 -25 -11 -30 -8 -6 3 -10 1 -10 -5 0 -6 -5 -8 -12 -4 -6 4 -8 3 -4
-4 3 -6 -3 -13 -14 -17 -11 -3 -25 -15 -31 -26 -5 -11 -15 -16 -21 -13 -7 5
-9 2 -5 -9 4 -10 2 -16 -6 -14 -7 1 -11 -4 -9 -11 1 -8 -2 -11 -8 -7 -6 3 -7
11 -4 17 4 6 -5 3 -19 -8 -15 -10 -24 -25 -22 -31 2 -7 -1 -12 -7 -10 -7 1
-12 -4 -13 -12 0 -8 -8 -15 -17 -17 -24 -3 -61 -41 -53 -53 3 -7 3 -10 -2 -9
-11 3 -53 -25 -53 -35 0 -4 6 -5 13 -1 8 5 8 3 -2 -9 -7 -9 -17 -15 -21 -12
-5 3 -15 -4 -23 -15 -7 -11 -17 -17 -20 -13 -4 3 -7 -1 -7 -10 0 -10 -4 -17
-10 -17 -5 0 -10 -7 -10 -15 0 -8 -5 -14 -12 -13 -7 2 -12 -4 -13 -12 -1 -8
-7 -14 -13 -12 -10 2 -10 -3 -2 -17 7 -14 7 -22 0 -26 -6 -4 -9 -1 -8 5 2 7
-5 14 -15 15 -15 3 -16 1 -6 -11 10 -12 9 -13 -7 -8 -10 4 -16 3 -11 -1 4 -5
-5 -17 -20 -27 -16 -10 -24 -18 -18 -18 5 0 -1 -7 -13 -16 -12 -8 -21 -23 -20
-31 2 -9 -5 -17 -14 -18 -10 -2 -29 -16 -42 -32 -14 -15 -33 -36 -42 -45 -10
-10 -13 -22 -8 -30 6 -10 4 -10 -9 1 -20 16 -23 2 -4 -18 8 -10 8 -12 0 -7 -6
3 -14 2 -18 -4 -4 -6 -11 -7 -17 -4 -6 4 -9 3 -6 -2 6 -10 -16 -35 -29 -34
-17 2 -25 52 -30 200 -5 130 -2 175 16 280 13 77 28 135 40 150 10 14 42 35
72 47 51 20 264 68 339 76 63 7 226 7 289 1z m8 -69 c0 -8 -4 -12 -9 -9 -5 3
-6 10 -3 15 9 13 12 11 12 -6z m-251 -237 c4 -7 4 -10 -1 -6 -4 4 -15 2 -24
-5 -14 -11 -14 -10 -2 6 16 20 18 21 27 5z m-140 -122 c1 -7 -4 -13 -12 -13
-9 0 -11 4 -4 12 5 7 8 15 5 18 -3 4 -2 5 2 2 4 -3 8 -11 9 -19z m44 8 c0 -8
-19 -13 -24 -6 -3 5 1 9 9 9 8 0 15 -2 15 -3z m-110 -79 c0 -1 -9 -10 -19 -19
-19 -17 -19 -17 -16 1 2 10 4 18 4 19 2 2 31 1 31 -1z m-54 -61 c1 -9 0 -13
-4 -10 -3 4 -7 14 -8 22 -1 9 0 13 4 10 3 -4 7 -14 8 -22z m44 0 c0 -8 -19
-13 -24 -6 -3 5 1 9 9 9 8 0 15 -2 15 -3z m-44 -50 c-1 -8 -6 -17 -12 -21 -5
-4 -6 -4 -2 1 4 5 3 14 -2 21 -7 8 -5 12 4 12 8 0 13 -6 12 -13z m-115 -77
c-10 -9 -11 -8 -5 6 3 10 9 15 12 12 3 -3 0 -11 -7 -18z"/>
<path d="M2895 3746 c3 -60 5 -160 5 -223 0 -83 3 -112 11 -107 13 8 5 302
-11 389 -7 39 -8 26 -5 -59z"/>
<path d="M2902 3320 c0 -14 2 -19 5 -12 2 6 2 18 0 25 -3 6 -5 1 -5 -13z"/>
<path d="M2891 3234 c0 -11 3 -14 6 -6 3 7 2 16 -1 19 -3 4 -6 -2 -5 -13z"/>
<path d="M2881 3164 c0 -11 3 -14 6 -6 3 7 2 16 -1 19 -3 4 -6 -2 -5 -13z"/>
<path d="M2707 3053 c-18 -18 -4 -25 39 -19 75 10 89 25 23 26 -31 0 -59 -3
-62 -7z"/>
<path d="M3084 2970 c0 -91 2 -128 3 -82 2 45 2 119 0 165 -1 45 -3 8 -3 -83z"/>
<path d="M2380 2698 c0 -37 7 -34 14 5 2 15 0 27 -5 27 -5 0 -9 -14 -9 -32z"/>
<path d="M2515 2710 c3 -5 8 -10 11 -10 2 0 4 5 4 10 0 6 -5 10 -11 10 -5 0
-7 -4 -4 -10z"/>
<path d="M2514 2298 c-4 -7 -4 -10 1 -6 4 4 14 3 21 -3 9 -7 14 -6 20 3 4 7 4
10 -1 6 -4 -4 -14 -3 -21 3 -9 7 -14 6 -20 -3z"/>
<path d="M2573 2289 c-2 -24 10 -25 28 -1 7 9 9 14 5 10 -5 -4 -14 -4 -20 2
-8 6 -12 3 -13 -11z"/>
<path d="M2045 2345 c-22 -13 -37 -25 -33 -25 9 0 78 41 78 46 0 6 -3 5 -45
-21z"/>
<path d="M2670 1934 c0 -9 5 -14 12 -12 18 6 21 28 4 28 -9 0 -16 -7 -16 -16z"/>
<path d="M3355 1927 c-2 -6 -13 -66 -25 -132 -11 -66 -38 -210 -60 -319 -44
-219 -46 -236 -27 -236 8 0 19 33 29 93 10 50 26 135 37 187 75 370 81 408 64
414 -8 3 -16 0 -18 -7z"/>
<path d="M3400 1914 c0 -8 5 -12 10 -9 6 4 8 11 5 16 -9 14 -15 11 -15 -7z"/>
<path d="M3391 1874 c0 -11 3 -14 6 -6 3 7 2 16 -1 19 -3 4 -6 -2 -5 -13z"/>
<path d="M3381 1804 c0 -11 3 -14 6 -6 3 7 2 16 -1 19 -3 4 -6 -2 -5 -13z"/>
<path d="M3362 1700 c0 -19 2 -27 5 -17 2 9 2 25 0 35 -3 9 -5 1 -5 -18z"/>
<path d="M3322 1495 c0 -16 2 -22 5 -12 2 9 2 23 0 30 -3 6 -5 -1 -5 -18z"/>
<path d="M3281 1284 c0 -11 3 -14 6 -6 3 7 2 16 -1 19 -3 4 -6 -2 -5 -13z"/>
<path d="M3211 1264 c0 -11 3 -14 6 -6 3 7 2 16 -1 19 -3 4 -6 -2 -5 -13z"/>
<path d="M3445 1880 c-3 -6 1 -13 10 -16 19 -8 30 0 20 15 -8 14 -22 14 -30 1z"/>
<path d="M2852 1834 c4 -21 22 -23 26 -1 2 10 -3 17 -13 17 -10 0 -15 -6 -13
-16z"/>
<path d="M2791 1503 c-1 -17 19 -27 31 -15 6 6 6 12 -3 17 -8 5 -10 4 -5 -3 4
-7 3 -12 -3 -12 -5 0 -12 6 -14 13 -4 9 -6 9 -6 0z"/>
<path d="M2851 1125 c-7 -31 -10 -59 -6 -63 3 -4 32 -7 63 -7 l56 0 13 55 c6
30 10 57 7 59 -2 3 -31 7 -62 9 l-58 4 -13 -57z m108 -50 c0 -5 -4 -3 -9 5 -5
8 -9 22 -9 30 0 16 17 -16 18 -35z"/>
<path d="M2568 1053 c12 -2 30 -2 40 0 9 3 -1 5 -23 4 -22 0 -30 -2 -17 -4z"/>
<path d="M4099 753 c-13 -16 -12 -17 4 -4 9 7 17 15 17 17 0 8 -8 3 -21 -13z"/>
<path d="M2498 973 c7 -3 16 -2 19 1 4 3 -2 6 -13 5 -11 0 -14 -3 -6 -6z"/>
<path d="M2548 963 c7 -3 16 -2 19 1 4 3 -2 6 -13 5 -11 0 -14 -3 -6 -6z"/>
<path d="M2538 863 c7 -3 16 -2 19 1 4 3 -2 6 -13 5 -11 0 -14 -3 -6 -6z"/>
<path d="M2638 843 c7 -3 16 -2 19 1 4 3 -2 6 -13 5 -11 0 -14 -3 -6 -6z"/>
<path d="M2392 638 c-16 -16 -15 -28 2 -28 16 0 29 27 17 34 -4 3 -13 0 -19
-6z"/>
<path d="M3140 495 c0 -8 5 -15 10 -15 6 0 10 7 10 15 0 8 -4 15 -10 15 -5 0
-10 -7 -10 -15z"/>
<path d="M3696 444 c-4 -9 -4 -19 -1 -22 2 -3 7 3 11 12 4 9 4 19 1 22 -2 3
-7 -3 -11 -12z"/>
<path d="M739 3948 c-2 -33 -2 -33 -6 -4 l-5 29 -68 -7 c-101 -9 -190 -41
-275 -98 -252 -168 -338 -521 -198 -807 31 -63 58 -96 155 -194 l118 -117 1
197 c0 259 8 326 40 358 25 25 41 26 219 23 30 -1 80 2 110 5 39 5 49 4 35 -3
-18 -8 -16 -10 10 -9 48 2 51 0 64 -27 15 -34 2 -54 -15 -22 -18 34 -61 40
-232 33 -176 -8 -178 -8 -191 -46 -7 -20 -14 -172 -18 -386 -3 -194 -10 -353
-15 -353 -4 0 -9 26 -10 58 -1 37 -3 45 -5 22 -2 -19 -7 -42 -10 -50 -3 -8 -7
-18 -7 -21 -1 -3 -13 -17 -28 -31 -15 -14 -26 -27 -23 -30 3 -2 -20 -22 -50
-44 -30 -21 -57 -45 -60 -52 -3 -8 34 17 82 54 108 85 219 119 253 79 10 -12
7 -20 -18 -45 -17 -16 -38 -30 -46 -30 -9 0 -16 -4 -16 -10 0 -5 -7 -7 -15 -4
-8 4 -22 1 -30 -6 -8 -7 -15 -9 -15 -4 0 4 -14 -7 -31 -24 -17 -18 -35 -32
-40 -32 -5 0 -6 -7 -3 -15 4 -8 10 -12 15 -9 5 3 7 9 5 13 -3 4 1 8 9 8 21 0
19 -6 -10 -29 -14 -11 -26 -29 -26 -41 -1 -18 -2 -19 -6 -4 -3 10 1 25 9 34
11 14 10 15 -12 8 -14 -4 -25 -8 -25 -9 -1 0 -6 -13 -13 -28 -8 -20 -8 -29 0
-34 7 -5 8 -3 3 6 -5 8 -4 11 3 7 12 -8 10 -32 -3 -44 -4 -4 -5 -2 0 6 5 10 4
12 -4 7 -6 -4 -9 -11 -6 -16 9 -14 13 -70 5 -65 -7 4 -22 -46 -15 -53 1 -1 17
19 34 46 43 68 57 79 131 101 105 31 150 35 166 14 13 -17 14 -17 8 0 -5 14 0
17 30 17 29 0 38 -5 45 -22 11 -31 7 -53 -10 -54 -9 -1 -10 0 -1 3 7 3 10 9 6
14 -3 5 -10 7 -15 4 -11 -8 -47 -17 -75 -19 -23 -3 -86 -26 -94 -35 -15 -17
-51 -29 -74 -25 -19 3 -24 1 -20 -10 3 -8 12 -12 20 -9 8 3 14 0 14 -5 0 -6
-11 -9 -25 -6 -26 4 -35 -10 -12 -19 6 -3 0 -6 -15 -6 -20 -1 -26 -5 -22 -16
5 -11 10 -13 19 -5 8 7 12 6 12 -4 0 -10 -9 -13 -26 -9 -24 4 -24 3 -8 -15 17
-18 17 -20 0 -33 -16 -13 -17 -12 -5 3 9 11 10 18 2 23 -5 3 -10 1 -10 -5 0
-6 -5 -8 -12 -4 -7 5 -8 3 -3 -6 4 -7 2 -16 -6 -20 -7 -5 -14 -15 -15 -24 -3
-23 27 -5 96 59 71 65 78 69 162 85 57 11 69 11 84 -1 11 -9 15 -9 10 -1 -5 9
4 12 34 12 37 0 41 -2 38 -22 -4 -28 -82 -75 -94 -57 -5 8 -3 9 6 4 8 -5 11
-4 6 3 -7 12 -31 6 -55 -12 -8 -6 -16 -10 -18 -8 -1 1 -6 1 -10 1 -5 -1 -15
-1 -25 0 -9 1 -20 -3 -24 -10 -4 -7 -3 -9 4 -5 6 3 9 -1 8 -11 -2 -9 -9 -19
-17 -21 -11 -3 -11 -1 1 7 13 9 12 11 -6 11 -26 0 -70 -45 -54 -55 8 -5 6 -12
-5 -25 -9 -10 -14 -23 -11 -29 4 -5 1 -13 -5 -17 -8 -5 -9 -3 -4 6 5 8 3 11
-5 8 -16 -5 -22 -36 -9 -44 5 -3 7 -9 5 -13 -3 -4 1 -8 9 -8 8 0 11 5 8 11 -4
6 0 5 9 -1 8 -7 19 -9 24 -5 4 4 2 -1 -5 -11 -12 -15 -12 -17 2 -12 8 4 18 2
21 -3 3 -5 19 -8 35 -6 17 2 33 -2 37 -8 5 -7 2 -8 -7 -3 -11 7 -12 6 -2 -6
10 -12 10 -18 0 -29 -10 -12 -9 -12 4 -2 9 6 20 8 24 4 5 -4 5 -1 1 6 -4 6 -5
12 -2 12 3 0 13 -14 21 -30 9 -17 20 -28 26 -25 5 4 9 3 8 -2 -4 -21 2 -34 12
-27 8 4 8 1 1 -12 -5 -11 -8 -30 -7 -44 1 -14 -5 -34 -14 -44 -15 -18 -15 -18
9 -6 l25 13 -25 -29 c-14 -16 -17 -22 -7 -15 13 11 17 11 17 1 0 -9 6 -8 19 4
18 17 24 31 36 94 2 13 -5 47 -15 76 -17 43 -29 58 -76 89 -31 20 -54 37 -50
37 17 0 103 -51 124 -72 43 -46 49 -124 17 -188 -14 -26 -69 -83 -79 -81 -3 1
-5 -2 -3 -6 1 -4 8 -8 15 -9 6 -1 9 3 6 9 -3 7 2 3 11 -8 9 -11 20 -20 25 -20
4 0 12 -4 17 -9 5 -5 3 -6 -4 -2 -9 5 -12 0 -11 -18 1 -13 6 -22 10 -20 5 3 5
10 2 16 -4 7 -2 8 4 4 9 -5 9 -13 1 -27 -9 -18 -8 -19 9 -10 13 7 19 7 19 -2
0 -7 4 -21 8 -32 5 -16 5 -17 -4 -5 -8 11 -11 11 -11 2 0 -7 6 -15 13 -17 12
-5 19 -45 20 -112 0 -24 4 -30 12 -23 7 5 16 6 20 2 5 -4 5 -2 1 5 -3 6 -2 14
2 17 14 8 8 -40 -7 -58 -13 -15 -12 -16 11 -12 28 5 33 -13 10 -36 -9 -9 -11
-6 -7 11 2 12 0 19 -5 16 -13 -8 -4 -40 10 -37 8 2 10 -3 6 -13 -4 -11 -2 -15
6 -12 7 2 11 13 10 23 -2 10 -1 16 4 12 12 -13 11 -78 -2 -89 -9 -8 -12 -4 -9
17 2 26 2 27 -11 9 -12 -16 -12 -21 2 -37 9 -9 22 -15 28 -11 6 4 5 0 -2 -9
-9 -11 -10 -18 -2 -23 5 -3 10 -11 10 -16 0 -6 -4 -8 -9 -4 -5 3 -13 0 -17 -6
-5 -8 -3 -9 6 -4 8 5 11 3 8 -6 -3 -8 -11 -13 -18 -11 -10 2 -11 0 -2 -11 7
-8 8 -18 4 -22 -4 -5 -2 -5 5 -2 6 4 13 2 15 -5 3 -9 6 -9 12 0 4 7 2 12 -5
12 -7 0 -4 7 7 15 19 15 19 15 -1 8 -19 -6 -19 -5 -3 13 9 10 17 24 18 29 4
22 6 12 5 -23 -1 -44 -21 -85 -37 -76 -7 5 -8 2 -3 -5 5 -9 14 -6 32 11 21 19
23 20 17 4 -6 -15 -4 -17 7 -11 12 7 12 6 1 -7 -16 -20 -25 -61 -11 -53 5 4 6
11 3 17 -4 7 -2 8 5 4 6 -4 9 -12 5 -17 -3 -6 2 -19 12 -30 14 -16 15 -20 4
-17 -11 2 -14 -4 -12 -21 1 -14 -6 -34 -17 -45 -12 -13 -19 -32 -17 -49 2 -15
-1 -30 -6 -33 -4 -3 -6 -10 -2 -15 10 -17 23 1 18 26 -3 17 0 24 8 23 8 -2 13
7 12 23 0 14 5 26 12 26 7 0 11 -9 8 -20 -2 -11 1 -26 7 -33 7 -8 6 -14 -2
-20 -7 -4 -9 -3 -5 4 3 6 2 13 -3 16 -16 10 -29 -23 -35 -85 -1 -17 3 -26 12
-25 20 1 24 -30 6 -45 -8 -6 -14 -8 -14 -5 0 4 -10 1 -22 -5 -18 -10 -24 -8
-36 7 -14 18 -14 18 -8 1 5 -17 1 -18 -44 -13 -107 12 -170 73 -194 187 -10
45 -16 59 -21 46 -10 -24 4 -107 20 -124 10 -10 12 -20 5 -36 -7 -15 -6 -48 4
-102 l13 -80 -5 99 -5 100 34 -35 c33 -32 62 -50 102 -63 9 -3 17 -11 17 -17
0 -8 -4 -8 -15 1 -9 7 -18 10 -22 7 -3 -4 -12 1 -20 11 -12 15 -13 11 -8 -33
15 -117 14 -125 -5 -41 -19 87 -26 104 -34 95 -6 -6 22 -172 34 -204 6 -15 8
-30 6 -33 -9 -9 -25 46 -42 141 -18 105 -22 122 -30 115 -8 -8 25 -201 36
-212 6 -6 10 -18 10 -27 0 -9 30 -48 66 -85 37 -38 61 -61 54 -51 -9 11 -9 17
-1 17 6 0 13 -11 17 -24 4 -17 21 -31 57 -47 103 -45 220 -21 265 56 12 19 27
35 34 35 9 0 9 -3 -2 -10 -12 -8 -11 -10 7 -10 31 0 60 35 76 89 14 51 44 74
33 25 l-6 -29 34 36 c36 39 50 96 42 171 -6 55 12 56 20 1 l7 -47 23 28 c26
30 32 93 15 154 -13 44 -4 40 18 -8 l18 -41 13 31 c7 17 10 47 8 68 -6 38 -54
127 -92 170 -16 18 -17 22 -4 17 15 -6 53 -58 102 -139 l18 -28 29 28 c36 35
38 16 3 -26 -30 -35 -30 -33 13 -48 30 -10 32 -9 38 18 3 15 21 53 40 84 19
31 28 54 22 50 -7 -3 -4 1 6 9 9 8 22 28 28 46 6 17 16 31 21 31 6 0 4 8 -3
17 -8 9 -9 14 -3 10 16 -10 25 18 11 32 -9 9 -8 11 4 6 22 -8 44 39 25 54 -7
6 -17 7 -21 3 -5 -4 -5 -1 -1 6 6 9 11 10 21 2 18 -15 29 18 13 38 -10 13 -10
14 0 8 16 -10 24 14 26 74 0 27 4 51 8 55 4 4 4 14 1 23 -5 11 -3 13 8 7 8 -5
5 2 -6 15 -11 13 -14 20 -7 16 8 -5 12 0 12 13 0 11 4 22 8 25 4 2 8 22 9 43
0 22 -1 28 -4 14 -3 -17 -7 -20 -13 -11 -6 9 -13 5 -26 -16 -10 -16 -26 -36
-35 -44 -9 -8 -14 -22 -11 -30 3 -8 1 -12 -3 -7 -9 8 -45 -20 -45 -36 0 -5
-16 -25 -35 -44 -19 -19 -32 -39 -29 -44 3 -5 -2 -6 -10 -3 -31 12 -38 206
-11 344 7 41 25 112 40 158 14 45 23 87 19 94 -4 7 -3 8 4 4 17 -10 15 9 -2
23 -12 10 -17 8 -25 -7 -6 -11 -7 -23 -3 -27 4 -3 0 -5 -8 -3 -8 2 -15 -4 -16
-12 -2 -29 -17 -51 -30 -46 -8 3 -13 2 -13 -2 1 -4 1 -20 0 -35 -1 -20 -5 -26
-13 -21 -8 5 -7 0 2 -11 9 -11 10 -16 3 -11 -8 4 -13 1 -13 -9 0 -9 4 -14 9
-11 5 4 8 -2 6 -11 -2 -10 -7 -36 -11 -58 l-7 -40 -8 45 c-14 85 -10 159 12
210 13 31 19 59 15 75 -4 14 -2 25 3 25 15 0 10 63 -7 85 l-14 20 7 -20 c12
-33 11 -48 -5 -52 -12 -4 -12 -3 -1 5 11 8 11 13 0 33 -13 22 -14 15 -19 -71
l-5 -95 -13 101 c-21 162 -33 188 -60 131 -10 -21 -11 -32 -3 -41 6 -8 14 -35
16 -61 3 -27 10 -66 16 -87 11 -41 4 -82 -12 -73 -5 4 -5 -5 1 -20 6 -15 10
-34 10 -43 -1 -26 -34 21 -71 99 -31 66 -72 110 -64 68 2 -11 0 -17 -6 -14 -5
4 -7 10 -5 14 3 4 1 13 -5 21 -6 11 -9 8 -9 -12 0 -15 8 -35 19 -45 27 -26 71
-115 74 -151 1 -16 5 -28 8 -26 12 7 18 -23 6 -35 -8 -8 -8 -11 0 -11 6 0 14
-8 17 -17 6 -14 2 -12 -17 5 -21 20 -25 21 -43 6 -10 -8 -13 -13 -7 -9 7 3 20
2 29 -3 14 -8 14 -10 -1 -25 -12 -12 -13 -17 -3 -17 10 0 9 -3 -2 -10 -8 -5
-10 -10 -5 -10 6 0 15 -11 21 -24 10 -21 8 -23 -14 -20 -13 1 -21 0 -18 -3 3
-3 1 -14 -5 -24 -7 -13 -6 -19 1 -19 6 0 15 -12 21 -26 5 -15 24 -45 41 -66
24 -30 28 -42 19 -51 -9 -9 -11 -8 -5 7 5 14 4 17 -5 12 -7 -5 -32 8 -61 30
-41 31 -47 40 -39 56 8 15 1 27 -35 66 -25 27 -53 49 -63 49 -11 0 -4 -11 22
-32 39 -33 42 -65 5 -45 -21 11 -87 12 -110 2 -15 -7 -22 -44 -8 -39 4 1 14
-7 23 -18 9 -11 13 -13 9 -5 -4 8 6 1 23 -15 21 -21 40 -31 59 -30 29 1 58
-10 79 -30 16 -15 16 -53 0 -59 -10 -3 -13 -17 -11 -43 4 -44 -1 -58 -17 -45
-21 17 -148 52 -189 52 -22 0 -53 -8 -70 -17 -28 -17 -30 -17 -42 -1 -7 10
-16 18 -20 18 -16 0 -1 -40 56 -150 56 -107 62 -126 65 -187 2 -62 2 -65 -8
-28 -5 22 -17 46 -26 53 -9 6 -12 12 -5 12 7 0 12 5 12 11 0 5 -4 8 -9 4 -5
-3 -16 8 -25 25 -9 19 -10 28 -3 23 7 -4 6 0 -2 10 -7 9 -10 17 -6 17 4 0 2 7
-5 15 -7 8 -17 12 -23 8 -5 -3 -7 -1 -3 5 9 14 -12 65 -24 57 -5 -3 -7 0 -4 9
3 8 -2 25 -11 39 -9 14 -15 29 -14 33 2 9 1 14 -38 109 -14 33 -27 71 -30 85
-3 14 -11 31 -17 39 -9 12 -8 13 4 6 13 -8 13 -7 1 8 -7 9 -10 17 -6 17 5 0 0
10 -11 22 -12 13 -13 18 -4 13 13 -8 13 -7 1 8 -7 9 -10 17 -6 17 4 0 2 7 -5
15 -7 8 -10 15 -7 15 3 0 -3 30 -13 68 -33 122 -42 295 -17 354 9 21 13 38 10
38 -3 0 1 8 8 17 12 15 12 16 -1 8 -12 -7 -13 -6 -4 6 6 8 10 24 9 37 -1 12 3
22 8 22 5 0 4 7 -3 15 -8 10 -9 15 -2 15 7 0 9 7 5 17 -5 12 -3 14 8 8 12 -7
12 -6 1 7 -10 12 -8 20 9 42 l20 26 -33 1 c-25 1 -21 3 20 10 95 16 92 10 94
172 0 82 4 123 7 97 l6 -45 20 45 c11 24 19 51 17 58 -2 9 1 11 9 6 8 -4 10
-3 5 5 -4 6 -12 9 -17 6 -5 -4 -9 15 -9 43 0 34 -5 52 -15 55 -11 5 -15 -7
-18 -61 -2 -37 -3 52 -3 198 0 181 2 228 6 150 3 -63 7 -108 8 -100 4 22 40
61 103 108 95 71 93 67 62 148 -14 38 -32 73 -40 77 -7 5 -11 12 -8 16 2 5 -2
14 -9 21 -12 9 -17 7 -26 -12 -11 -22 -10 -22 4 -4 18 23 21 14 5 -15 -8 -17
-7 -24 8 -36 10 -8 12 -11 5 -8 -7 4 -19 0 -25 -9 -7 -9 -26 -17 -42 -19 l-30
-2 -5 151 c-4 121 -9 156 -23 178 -21 31 -55 47 -109 49 -36 1 -38 3 -39 37
-1 19 -5 46 -9 60 -6 19 -8 9 -9 -37 l-1 -63 -130 0 c-128 0 -130 0 -161 -28
-37 -33 -47 -79 -50 -211 -1 -66 -5 -91 -14 -91 -7 0 -15 7 -19 15 -3 8 0 15
6 15 7 0 6 5 -2 15 -7 8 -15 13 -19 11 -7 -5 -61 48 -75 72 -6 10 -1 11 21 7
l28 -6 -30 17 c-18 11 -25 19 -17 22 10 3 8 8 -5 18 -11 8 -13 13 -5 14 6 0
12 5 12 11 0 5 -4 8 -9 5 -13 -9 -20 29 -9 49 7 11 6 21 -1 28 -14 14 -14 27
0 27 5 0 7 -6 3 -12 -4 -7 -3 -9 1 -5 11 10 16 39 5 32 -4 -2 -8 6 -8 20 0 14
4 22 9 19 5 -3 9 -2 10 3 0 4 2 16 4 25 2 11 -2 15 -13 12 -14 -5 -14 -4 1 6
9 6 15 15 12 20 -3 5 -1 11 4 15 5 3 8 14 6 25 -2 11 1 20 7 20 7 0 6 5 -1 14
-9 11 -9 16 0 22 7 4 9 3 5 -4 -3 -6 -2 -13 4 -17 6 -4 8 -10 6 -14 -3 -4 1
-8 9 -8 10 0 11 6 4 24 -6 15 -5 23 2 23 8 0 7 5 -1 16 -8 8 -9 14 -4 12 5 -1
20 4 33 11 13 7 21 8 17 3 -3 -6 -2 -14 4 -17 6 -4 9 -1 8 7 -2 7 3 12 11 10
12 -3 12 0 1 12 -15 19 -24 21 -14 4 5 -9 2 -9 -9 1 -22 18 -22 20 7 17 19 -3
22 1 18 18 -5 19 -4 19 11 7 9 -7 14 -18 10 -25 -4 -7 -1 -6 9 1 8 7 19 9 24
5 5 -4 6 -3 2 2 -4 5 -3 15 3 22 11 13 -6 15 -27 2 -6 -4 -11 -1 -11 7 0 8 4
12 9 9 8 -5 11 5 11 38 0 9 5 16 11 15 6 -1 10 4 8 11 -2 10 2 10 17 3 10 -6
21 -8 24 -5 3 3 11 3 17 -1 8 -5 8 -11 -1 -22 -11 -12 -14 -12 -21 1 -5 9 -14
16 -20 16 -7 0 -7 -5 1 -14 9 -11 9 -16 0 -22 -8 -5 -9 -3 -4 7 8 12 6 12 -8
0 -9 -7 -17 -16 -17 -19 0 -3 3 -2 7 1 3 4 12 2 19 -4 8 -7 14 -7 19 1 3 6 11
8 16 4 5 -3 8 0 7 7 -2 6 3 14 11 17 8 2 11 0 7 -6 -3 -6 -2 -13 2 -16 5 -3 8
10 7 29 -3 32 -1 35 22 31 22 -4 23 -3 11 11 -11 14 -9 14 20 -1 18 -9 30 -21
27 -26 -3 -5 0 -12 6 -16 8 -4 9 -3 5 4 -4 7 -1 12 6 12 9 0 9 3 -2 10 -11 7
-11 10 -2 10 7 0 11 4 7 9 -3 5 0 13 6 17 8 4 9 3 5 -4 -4 -7 -3 -12 3 -12 6
0 8 -6 5 -14 -3 -8 -1 -17 4 -20 6 -3 9 14 8 44 -2 28 1 50 6 50 4 0 8 -16 8
-35 0 -21 5 -35 13 -35 8 0 7 -3 -3 -10 -12 -8 -12 -10 3 -16 9 -3 15 -10 12
-14 -3 -5 -1 -11 3 -14 5 -3 9 6 8 21 -1 25 2 27 41 28 27 1 40 -3 36 -9 -3
-6 0 -6 7 1 10 9 17 6 34 -11 17 -17 18 -18 6 -2 -14 19 -14 20 3 7 15 -12 20
-11 40 5 12 11 16 12 10 4 -14 -18 -1 -46 16 -36 7 5 9 1 5 -9 -5 -12 -10 -13
-17 -6 -16 16 -26 13 -22 -6 1 -11 9 -17 21 -15 16 3 16 2 3 -14 -13 -16 -12
-16 9 -5 28 15 48 5 31 -15 -7 -9 -8 -14 -3 -13 20 4 26 -2 15 -15 -8 -10 -9
-16 -1 -21 6 -4 10 -3 9 2 -1 4 0 11 1 16 1 4 3 10 5 15 1 4 4 14 8 22 3 8 15
59 25 112 l19 98 -46 29 c-60 38 -110 57 -199 76 -95 20 -92 20 -93 -17z
m-288 -255 c13 -16 12 -17 -3 -4 -10 7 -18 15 -18 17 0 8 8 3 21 -13z m-14
-29 c0 -10 -10 -11 -35 -5 -2 1 -1 5 2 9 8 13 33 10 33 -4z m-57 -30 c0 -8
-19 -13 -24 -6 -3 5 1 9 9 9 8 0 15 -2 15 -3z m515 -378 c16 -12 20 -28 21
-93 l2 -78 -7 72 c-3 40 -12 78 -19 85 -9 9 -59 14 -173 16 -141 3 -163 1
-180 -14 -17 -15 -19 -34 -21 -193 l-2 -176 -3 174 c-5 237 -19 221 195 221
129 0 173 -3 187 -14z m64 -118 l-2 -113 -9 80 c-8 73 -4 145 7 145 3 0 4 -51
4 -112z m-145 19 c69 -53 85 -158 35 -229 -32 -44 -117 -81 -166 -72 -49 9
-117 75 -131 127 -11 40 5 116 31 147 61 73 155 84 231 27z m-429 -87 c4 -6
11 -8 16 -5 14 9 11 -11 -4 -24 -11 -8 -18 -7 -31 7 -9 10 -13 22 -9 25 9 10
21 9 28 -3z m45 -71 c0 -5 6 -7 13 -3 6 4 8 3 4 -1 -13 -15 -34 -14 -34 1 0 8
4 14 9 14 4 0 8 -5 8 -11z m510 -214 c-7 -8 -7 -15 -1 -19 5 -4 9 -136 9 -334
0 -180 -3 -318 -7 -308 -7 19 -8 18 -14 -3 -5 -22 -9 -23 -53 -16 -26 3 -56
16 -68 27 -11 12 -16 18 -9 14 6 -3 15 -2 18 4 4 6 3 10 -2 9 -24 -4 -33 4
-33 29 0 20 3 23 9 12 6 -8 8 -17 6 -20 -5 -8 73 -12 96 -5 28 9 31 36 7 62
-23 24 -18 38 16 45 17 3 34 39 18 37 -19 -3 -23 2 -13 15 9 11 9 16 0 22 -8
4 -9 3 -5 -4 8 -14 -9 -15 -39 -3 -17 7 -16 9 13 15 37 9 44 38 12 58 -11 7
-20 16 -20 20 0 4 9 10 20 13 24 8 25 22 5 45 -11 12 -13 24 -7 40 7 19 3 28
-21 50 l-29 26 40 28 c31 21 41 35 44 62 2 19 0 38 -4 40 -5 3 -6 10 -3 15 4
5 5 9 3 9 -6 0 -113 -46 -125 -53 -24 -15 -12 -107 14 -107 11 0 8 -6 -8 -19
-17 -14 -29 -17 -41 -10 -15 8 -18 5 -18 -16 0 -23 -4 -25 -40 -25 -29 0 -40
-4 -40 -15 0 -18 -36 -20 -46 -4 -4 7 4 20 17 30 13 10 20 19 14 19 -5 0 -21
10 -34 21 -23 19 -23 20 -6 40 19 20 19 20 41 -8 18 -22 29 -27 56 -25 57 5
90 71 52 103 -22 18 -100 20 -114 4 -9 -11 -15 -10 -30 5 -30 30 -67 36 -90
15 -27 -24 -26 -31 16 -73 l35 -35 -25 -21 c-14 -12 -26 -32 -28 -46 -2 -14
-11 -26 -20 -28 -17 -3 -18 9 -17 165 1 92 4 156 6 141 6 -39 42 -63 124 -83
76 -19 131 -16 232 12 73 20 86 39 89 123 l2 65 3 -73 c3 -44 -1 -79 -7 -87z
m-45 39 c-9 -7 -47 -16 -83 -20 -169 -18 -292 2 -292 48 0 6 8 0 18 -12 16
-19 31 -23 109 -27 112 -7 218 4 238 24 8 8 16 29 17 46 1 28 2 27 5 -8 3 -28
0 -43 -12 -51z m-289 -125 c9 -10 14 -25 11 -34 -14 -34 -87 -4 -87 36 0 32
46 32 76 -2z m284 1 c0 -20 -42 -51 -63 -48 -34 5 -34 43 0 61 28 15 63 8 63
-13z m-142 -32 c-3 -31 -5 -33 -43 -33 -38 0 -40 2 -43 33 -3 32 -3 32 43 32
46 0 46 0 43 -32z m-144 -90 c19 -27 8 -41 -30 -36 -33 4 -41 20 -19 42 22 21
31 20 49 -6z m236 2 c11 19 40 4 40 -20 0 -15 -7 -20 -29 -20 -35 0 -56 21
-38 39 9 9 13 9 16 0 2 -8 6 -8 11 1z m-36 -47 c4 -9 0 -23 -8 -32 -14 -13
-16 -13 -22 2 -7 20 1 47 15 47 5 0 12 -8 15 -17z m-49 -33 c3 -6 4 -18 1 -28
-5 -14 -14 -17 -46 -14 -31 3 -40 1 -40 -11 0 -9 -3 -23 -6 -32 -6 -14 -4 -15
12 -7 10 6 36 14 56 17 24 4 42 14 49 27 9 16 13 18 20 7 11 -18 -18 -50 -39
-42 -10 4 -13 2 -8 -6 12 -18 -13 -41 -45 -41 -20 0 -35 10 -54 35 l-27 34 29
36 c21 27 35 35 60 35 17 0 35 -5 38 -10z m130 -15 c0 -16 -8 -21 -37 -23 -35
-3 -38 -1 -38 23 0 24 3 26 38 23 29 -2 37 -7 37 -23z m-5 -70 c27 -32 -37
-62 -69 -32 -11 10 -13 9 -8 -4 7 -20 -10 -39 -35 -39 -13 0 -18 -8 -18 -25 0
-23 -4 -25 -41 -25 -36 0 -40 2 -37 22 2 18 12 24 47 30 25 4 52 15 60 24 12
12 12 15 2 9 -9 -5 -7 2 5 18 17 23 33 31 70 36 6 0 17 -6 24 -14z m-265 -21
c0 -24 -46 -31 -65 -10 -13 16 -5 21 28 17 6 -1 12 3 12 9 0 7 6 10 13 8 6 -3
12 -13 12 -24z m54 -50 c-6 -7 -17 -10 -25 -7 -17 6 -18 15 -2 31 17 17 43 -5
27 -24z m-199 -98 c-9 -8 -11 2 -6 44 7 72 9 74 13 16 3 -29 -1 -53 -7 -60z
m419 80 c18 -18 8 -33 -29 -41 -57 -13 -91 19 -57 54 14 15 65 7 86 -13z
m-269 -1 c16 -20 5 -33 -38 -41 -34 -7 -50 10 -38 41 7 20 60 19 76 0z m-97
-39 c6 -15 -1 -26 -15 -26 -4 0 -8 9 -8 20 0 23 15 27 23 6z m275 -43 c-10
-12 -13 -12 -20 1 -13 23 0 40 18 25 11 -9 12 -15 2 -26z m81 -11 c7 -13 6
-23 -1 -30 -30 -30 -94 2 -68 33 17 21 57 19 69 -3z m-334 -271 c3 -5 2 -12
-3 -15 -5 -3 -9 1 -9 9 0 17 3 19 12 6z m-5 -108 c-11 -17 -11 -17 -6 0 3 10
7 26 7 35 1 15 2 15 6 0 2 -10 -1 -25 -7 -35z m913 -547 c4 -10 0 -12 -15 -8
-15 4 -17 7 -6 13 17 11 15 11 21 -5z m-630 -61 c-3 -9 -8 -14 -10 -11 -3 3
-2 9 2 15 9 16 15 13 8 -4z m897 -49 c0 -2 -7 -7 -16 -10 -8 -3 -12 -2 -9 4 6
10 25 14 25 6z m-526 -178 c-3 -4 1 -8 8 -8 14 -1 45 -25 67 -53 13 -16 12
-17 -12 -8 -15 6 -45 20 -68 31 -23 12 -66 24 -96 27 -87 9 -73 24 21 22 47
-2 83 -6 80 -11z m-56 -58 c23 -10 42 -24 42 -30 0 -14 -3 -13 -49 11 -22 11
-44 18 -49 15 -6 -3 -15 1 -22 9 -10 13 -9 15 11 15 13 0 43 -9 67 -20z m202
-177 c0 -11 -3 -11 -13 -1 -8 7 -14 18 -14 25 0 9 4 10 14 2 7 -6 13 -18 13
-26z m-193 -25 c-3 -8 -6 -5 -6 6 -1 11 2 17 5 13 3 -3 4 -12 1 -19z m10 -50
c-3 -7 -5 -2 -5 12 0 14 2 19 5 13 2 -7 2 -19 0 -25z m-230 -19 c2 -16 -1 -19
-9 -11 -5 5 -7 15 -4 21 10 15 12 14 13 -10z m39 -95 c1 -9 0 -13 -4 -10 -3 4
-7 14 -8 22 -1 9 0 13 4 10 3 -4 7 -14 8 -22z m-28 -19 c-3 -3 -9 2 -12 12 -6
14 -5 15 5 6 7 -7 10 -15 7 -18z m169 -7 c-3 -8 -6 -5 -6 6 -1 11 2 17 5 13 3
-3 4 -12 1 -19z m-17 -27 c0 -4 -6 -8 -14 -8 -8 0 -12 6 -9 14 5 13 23 9 23
-6z m-43 -33 c-3 -8 -6 -5 -6 6 -1 11 2 17 5 13 3 -3 4 -12 1 -19z m-27 -28
c0 -11 -2 -20 -4 -20 -2 0 -6 9 -9 20 -3 11 -1 20 4 20 5 0 9 -9 9 -20z m-40
-22 c0 -36 -4 -35 -14 5 -4 16 -2 27 4 27 5 0 10 -14 10 -32z m-160 6 c0 -2
-7 -4 -15 -4 -8 0 -15 4 -15 10 0 5 7 7 15 4 8 -4 15 -8 15 -10z m30 -10 c0
-8 -4 -12 -10 -9 -5 3 -10 10 -10 16 0 5 5 9 10 9 6 0 10 -7 10 -16z m46 -9
c3 -13 4 -30 1 -37 -3 -7 -6 -2 -6 13 -1 14 -6 30 -13 37 -9 9 -9 12 0 12 6 0
14 -11 18 -25z m41 -12 c-3 -10 -5 -4 -5 12 0 17 2 24 5 18 2 -7 2 -21 0 -30z
m-180 -15 c-3 -8 -6 -5 -6 6 -1 11 2 17 5 13 3 -3 4 -12 1 -19z m100 -40 c-3
-7 -5 -2 -5 12 0 14 2 19 5 13 2 -7 2 -19 0 -25z m101 -38 c0 -9 -3 -7 -8 5
-5 11 -8 29 -8 40 0 16 2 15 8 -5 4 -14 8 -32 8 -40z m-51 28 c-3 -8 -6 -5 -6
6 -1 11 2 17 5 13 3 -3 4 -12 1 -19z m-90 -20 c-3 -7 -5 -2 -5 12 0 14 2 19 5
13 2 -7 2 -19 0 -25z m-28 -21 c1 -5 -3 -5 -9 -2 -5 3 -10 16 -9 28 0 21 1 21
9 2 5 -11 9 -24 9 -28z m-35 -62 c5 -21 4 -27 -3 -20 -6 6 -13 26 -16 45 -7
42 8 21 19 -25z m224 0 c0 -16 -2 -15 -8 5 -11 34 -11 60 0 35 5 -11 8 -29 8
-40z m-178 -14 c0 -34 -10 -20 -16 21 -4 25 -2 29 5 18 6 -8 11 -26 11 -39z
m187 -33 c-3 -8 -6 -5 -6 6 -1 11 2 17 5 13 3 -3 4 -12 1 -19z m-206 -25 c13
-16 12 -17 -3 -4 -10 7 -18 15 -18 17 0 8 8 3 21 -13z"/>
<path d="M660 3163 c-33 -13 -69 -57 -80 -99 -11 -38 -10 -51 4 -88 23 -59 55
-87 109 -93 56 -7 95 13 132 67 65 94 10 209 -104 216 -25 2 -53 1 -61 -3z
m38 -33 c3 -7 0 -10 -7 -6 -6 4 -11 2 -11 -3 0 -6 13 -11 29 -11 36 0 81 -49
81 -89 0 -72 -97 -109 -140 -53 -18 22 -21 36 -17 77 7 70 22 104 43 101 10
-2 20 -9 22 -16z"/>
<path d="M662 3080 c-26 -25 -29 -75 -6 -108 21 -30 68 -29 99 3 30 30 32 64
4 99 -25 32 -66 34 -97 6z m80 -17 c22 -20 23 -42 2 -71 -22 -32 -60 -29 -79
8 -30 57 29 106 77 63z"/>
<path d="M360 3066 c0 -2 7 -9 15 -16 13 -11 14 -10 9 4 -5 14 -24 23 -24 12z"/>
<path d="M837 2493 c-4 -3 -7 -11 -7 -17 0 -6 5 -5 12 2 6 6 9 14 7 17 -3 3
-9 2 -12 -2z"/>
<path d="M813 3733 c0 -9 4 -10 14 -2 7 6 13 12 13 14 0 1 -6 2 -13 2 -8 0
-14 -6 -14 -14z"/>
<path d="M606 3728 c3 -5 10 -6 15 -3 13 9 11 12 -6 12 -8 0 -12 -4 -9 -9z"/>
<path d="M969 3643 c-13 -17 -13 -17 6 -3 11 8 22 16 24 17 2 2 0 3 -6 3 -6 0
-17 -8 -24 -17z"/>
<path d="M397 3584 c-7 -8 3 -34 13 -34 9 0 8 26 -1 35 -3 3 -8 2 -12 -1z"/>
<path d="M355 3492 c3 -3 0 -11 -7 -19 -8 -11 -7 -12 5 -7 21 7 29 31 11 31
-8 0 -12 -3 -9 -5z"/>
<path d="M1065 3121 c-3 -5 -2 -12 3 -15 5 -3 9 1 9 9 0 17 -3 19 -12 6z"/>
<path d="M403 3105 c0 -8 4 -12 9 -9 5 3 6 10 3 15 -9 13 -12 11 -12 -6z"/>
<path d="M1025 3011 c-15 -17 -15 -19 -1 -17 22 3 40 22 28 30 -5 3 -17 -3
-27 -13z"/>
<path d="M4196 2849 c-29 -34 -27 -10 -29 -362 l-1 -197 27 -28 27 -27 221 0
221 0 24 30 c24 30 24 30 24 298 l0 268 -25 24 -24 25 -220 0 -219 0 -26 -31z
m481 -2 c16 -16 18 -43 21 -265 2 -135 0 -257 -3 -270 -3 -12 -14 -31 -25 -42
-19 -19 -34 -20 -230 -20 -211 0 -211 0 -235 25 l-25 24 0 246 c0 256 5 290
45 312 8 5 110 9 225 8 187 0 211 -2 227 -18z"/>
<path d="M4413 2833 c20 -3 27 -10 26 -26 0 -12 -3 -16 -6 -9 -2 6 -11 12 -19
12 -9 0 -13 -3 -11 -7 6 -10 -116 -8 -159 2 -18 4 -34 3 -37 -2 -3 -5 -9 -111
-12 -237 -5 -168 -3 -236 5 -257 14 -32 27 -37 37 -13 5 13 32 15 214 13 153
-2 212 0 221 9 13 13 19 474 7 494 -4 6 -12 2 -18 -11 -9 -16 -9 -21 1 -21 9
0 9 -3 -2 -10 -8 -5 -22 -9 -30 -9 -10 0 -8 3 5 9 13 6 15 9 5 9 -12 1 -12 3
-2 10 17 10 -34 19 -95 16 -36 -1 -43 2 -43 17 0 12 -7 18 -22 17 -17 -1 -19
-2 -5 -6 24 -6 22 -32 -3 -30 -12 1 -20 8 -20 19 0 14 -7 18 -32 17 -31 -2
-31 -2 -5 -6z m-163 -248 c0 -198 -1 -215 -17 -214 -11 0 -13 3 -5 6 9 3 12
51 12 189 0 102 -4 183 -8 180 -5 -3 -9 8 -10 24 0 20 4 30 14 30 12 0 14 -35
14 -215z m187 173 c-3 -8 -6 -5 -6 6 -1 11 2 17 5 13 3 -3 4 -12 1 -19z m-110
6 c-3 -3 -12 -4 -19 -1 -8 3 -5 6 6 6 11 1 17 -2 13 -5z m58 -3 c3 -5 2 -12
-3 -15 -5 -3 -9 1 -9 9 0 17 3 19 12 6z m158 2 c-7 -2 -19 -2 -25 0 -7 3 -2 5
12 5 14 0 19 -2 13 -5z m-136 -45 c-3 -8 -6 -5 -6 6 -1 11 2 17 5 13 3 -3 4
-12 1 -19z m230 16 c-3 -3 -12 -4 -19 -1 -8 3 -5 6 6 6 11 1 17 -2 13 -5z
m-350 -96 c-2 -18 -4 -6 -4 27 0 33 2 48 4 33 2 -15 2 -42 0 -60z m350 66 c-3
-3 -12 -4 -19 -1 -8 3 -5 6 6 6 11 1 17 -2 13 -5z m-138 -69 c18 -18 25 -38
29 -77 4 -47 1 -58 -23 -86 -61 -72 -175 -13 -175 91 0 13 10 39 23 58 36 54
99 60 146 14z m88 13 c-3 -8 -6 -5 -6 6 -1 11 2 17 5 13 3 -3 4 -12 1 -19z
m48 12 c3 -5 -1 -10 -9 -10 -9 0 -16 5 -16 10 0 6 4 10 9 10 6 0 13 -4 16 -10z
m10 -40 c3 -5 -1 -10 -9 -10 -12 0 -16 -11 -16 -45 0 -25 5 -45 10 -45 6 0 10
-4 10 -10 0 -5 -7 -7 -15 -4 -21 8 -22 124 -1 124 8 0 18 -4 21 -10z m-55 -40
c0 -22 -2 -40 -4 -40 -2 0 -6 18 -8 40 -2 22 0 40 4 40 5 0 8 -18 8 -40z
m-299 -76 c-1 -48 -3 -90 -6 -92 -3 -3 -5 39 -5 93 0 54 3 96 6 92 3 -3 5 -45
5 -93z m306 -83 c3 -39 1 -71 -4 -71 -5 0 -9 34 -10 76 -2 94 7 90 14 -5z m46
62 c-7 -2 -19 -2 -25 0 -7 3 -2 5 12 5 14 0 19 -2 13 -5z m-3 -23 c13 -8 13
-10 -2 -10 -9 0 -20 5 -23 10 -8 13 5 13 25 0z m3 -27 c-7 -2 -19 -2 -25 0 -7
3 -2 5 12 5 14 0 19 -2 13 -5z m15 -40 c2 -7 -1 -13 -8 -13 -6 0 -9 4 -5 9 3
5 -5 12 -17 14 -22 5 -21 5 1 4 14 -1 26 -8 29 -14z m-136 -20 c-3 -16 -7 -22
-10 -15 -4 13 4 42 11 42 2 0 2 -12 -1 -27z m-95 11 c-3 -3 -12 -4 -19 -1 -8
3 -5 6 6 6 11 1 17 -2 13 -5z m33 -14 c0 -11 -4 -20 -8 -20 -4 0 -8 9 -8 20 0
11 4 20 8 20 4 0 8 -9 8 -20z m-155 -10 c3 -5 1 -10 -4 -10 -6 0 -11 5 -11 10
0 6 2 10 4 10 3 0 8 -4 11 -10z m95 -2 c0 -4 -4 -8 -9 -8 -6 0 -12 4 -15 8 -3
5 1 9 9 9 8 0 15 -4 15 -9z m150 2 c0 -5 -4 -10 -10 -10 -5 0 -10 5 -10 10 0
6 5 10 10 10 6 0 10 -4 10 -10z m17 -12 c-3 -8 -6 -5 -6 6 -1 11 2 17 5 13 3
-3 4 -12 1 -19z m90 16 c-3 -3 -12 -4 -19 -1 -8 3 -5 6 6 6 11 1 17 -2 13 -5z
m-407 -19 c0 -8 -7 -15 -15 -15 -8 0 -15 7 -15 15 0 8 7 15 15 15 8 0 15 -7
15 -15z m420 -4 c0 -5 -11 -11 -24 -13 -17 -4 -23 -1 -19 9 6 14 43 18 43 4z
m-227 -8 c-13 -2 -35 -2 -50 0 -16 2 -5 4 22 4 28 0 40 -2 28 -4z"/>
<path d="M3332 2145 c9 -10 21 -16 28 -13 7 2 -1 10 -16 17 -27 12 -28 11 -12
-4z"/>
<path d="M1901 2084 c0 -11 3 -14 6 -6 3 7 2 16 -1 19 -3 4 -6 -2 -5 -13z"/>
<path d="M295 2054 c-9 -14 -14 -28 -12 -31 3 -3 13 9 22 26 19 38 14 41 -10
5z"/>
<path d="M4304 2053 c10 -12 16 -29 13 -37 -4 -10 -1 -13 8 -9 17 6 7 32 -22
54 -16 12 -16 12 1 -8z"/>
<path d="M4644 2061 c3 -5 7 -29 7 -54 2 -33 6 -44 16 -40 16 6 16 16 2 66 -5
20 -14 37 -20 37 -6 0 -8 -4 -5 -9z"/>
<path d="M1602 2019 c-7 -12 -11 -24 -8 -27 3 -3 6 1 7 9 0 8 4 6 9 -6 7 -17
9 -15 9 13 1 38 0 39 -17 11z"/>
<path d="M1761 2024 c0 -11 3 -14 6 -6 3 7 2 16 -1 19 -3 4 -6 -2 -5 -13z"/>
<path d="M4240 2027 c0 -15 27 -43 34 -36 3 2 -4 15 -15 28 -13 16 -19 18 -19
8z"/>
<path d="M4600 2011 c5 -11 15 -23 21 -27 6 -3 3 5 -6 20 -20 30 -30 35 -15 7z"/>
<path d="M1742 1995 c4 -4 3 -14 -4 -22 -6 -7 -9 -15 -7 -18 3 -2 10 4 17 15
9 15 9 21 -1 26 -6 4 -9 4 -5 -1z"/>
<path d="M1810 1991 c0 -7 -5 -9 -12 -5 -7 5 -8 3 -3 -5 5 -9 10 -10 18 -2 6
6 8 14 4 18 -4 3 -7 1 -7 -6z"/>
<path d="M2978 1993 c6 -2 18 -2 25 0 6 3 1 5 -13 5 -14 0 -19 -2 -12 -5z"/>
<path d="M1697 1970 c3 -10 11 -24 19 -31 10 -8 10 -3 -2 20 -18 35 -24 40
-17 11z"/>
<path d="M4657 1953 c-2 -5 -2 -18 -1 -30 1 -13 2 -37 3 -54 0 -16 4 -28 9
-26 4 3 7 -8 7 -24 1 -16 -3 -29 -7 -29 -4 0 -8 -8 -8 -18 0 -10 -11 -29 -25
-42 -14 -13 -25 -29 -25 -37 0 -7 -6 -12 -12 -10 -7 1 -12 -4 -10 -11 1 -8 -2
-11 -7 -8 -5 4 -11 0 -14 -6 -3 -7 -10 0 -16 16 -10 25 -9 37 9 77 26 62 25
87 -2 31 -15 -30 -23 -40 -29 -30 -4 7 -6 -14 -3 -47 8 -91 25 -194 33 -199 4
-3 15 8 25 25 9 16 23 29 30 29 7 0 13 6 14 13 5 35 11 56 31 101 12 27 25 65
30 85 8 35 5 131 -5 179 -4 21 -19 30 -27 15z"/>
<path d="M1440 1939 c0 -5 5 -7 10 -4 6 3 10 8 10 11 0 2 -4 4 -10 4 -5 0 -10
-5 -10 -11z"/>
<path d="M4360 1935 c-23 -13 -21 -16 12 -19 6 -1 12 7 14 17 1 9 2 17 1 17
-1 -1 -13 -7 -27 -15z"/>
<path d="M1746 1913 c-6 -15 -8 -15 -16 -3 -6 9 -10 10 -10 3 0 -19 17 -24 30
-8 7 9 11 18 8 21 -3 3 -9 -3 -12 -13z"/>
<path d="M1684 1911 c3 -5 -1 -11 -9 -15 -10 -3 -13 -16 -11 -36 4 -36 22 -60
45 -59 11 0 10 3 -6 11 -27 13 -31 33 -5 23 12 -4 11 -1 -6 15 -18 17 -20 23
-10 34 10 11 17 11 28 3 8 -7 6 -2 -4 11 -19 22 -32 30 -22 13z"/>
<path d="M4712 1843 l1 -62 46 51 c25 28 47 56 49 62 2 6 -2 3 -8 -7 -6 -9
-16 -15 -21 -11 -5 3 -8 0 -7 -7 2 -8 -7 -13 -22 -13 -17 -1 -26 6 -31 24 -5
17 -7 4 -7 -37z m48 3 c0 -2 -8 -10 -17 -17 -16 -13 -17 -12 -4 4 13 16 21 21
21 13z"/>
<path d="M4067 1850 c3 -11 9 -20 13 -20 12 0 97 -144 129 -221 33 -79 36 -89
22 -89 -5 0 -8 7 -7 16 0 9 -5 19 -11 21 -7 3 -13 0 -13 -7 0 -6 5 -8 10 -5 6
3 10 2 10 -4 0 -5 -5 -13 -10 -16 -19 -12 0 -26 20 -15 15 8 21 6 29 -7 18
-32 12 1 -18 89 -35 103 -42 118 -98 190 -23 31 -43 64 -43 72 0 9 -8 16 -19
16 -14 0 -18 -5 -14 -20z"/>
<path d="M4020 1838 c0 -12 7 -18 23 -17 15 0 17 2 7 6 -8 3 -18 11 -22 17 -5
7 -8 4 -8 -6z"/>
<path d="M1392 1779 c6 -16 12 -29 13 -27 6 6 -8 58 -16 58 -4 0 -3 -14 3 -31z"/>
<path d="M1630 1799 c0 -5 5 -7 10 -4 6 3 10 8 10 11 0 2 -4 4 -10 4 -5 0 -10
-5 -10 -11z"/>
<path d="M1646 1773 c-4 -9 -2 -21 4 -27 7 -7 10 -2 10 17 0 31 -5 34 -14 10z"/>
<path d="M626 1711 c-8 -12 4 -19 27 -16 20 4 21 1 7 -25 -7 -13 -6 -21 5 -30
8 -7 15 -11 16 -9 7 33 6 46 -2 62 -6 10 -13 16 -16 13 -4 -3 -12 -1 -19 5 -8
6 -14 6 -18 0z m51 -50 c0 -11 -5 -18 -9 -15 -4 3 -5 11 -1 19 7 21 12 19 10
-4z"/>
<path d="M1596 1684 c-17 -17 -22 -59 -6 -49 6 4 8 11 4 16 -3 6 2 19 12 30
20 23 12 26 -10 3z"/>
<path d="M4288 1683 c6 -2 10 -8 8 -12 -3 -4 5 -8 17 -8 21 -2 22 -1 3 13 -11
8 -25 14 -30 13 -6 0 -5 -3 2 -6z"/>
<path d="M1240 1640 c0 -11 58 -130 63 -130 1 0 3 9 3 20 0 11 -4 20 -9 20 -4
0 -5 5 -2 11 4 5 -5 28 -19 50 -27 40 -36 47 -36 29z"/>
<path d="M4144 1634 c10 -7 24 -10 32 -7 21 8 8 21 -23 21 -24 0 -25 -2 -9
-14z"/>
<path d="M4180 1610 c0 -5 5 -10 11 -10 5 0 7 5 4 10 -3 6 -8 10 -11 10 -2 0
-4 -4 -4 -10z"/>
<path d="M4195 1580 c-3 -5 -1 -10 4 -10 6 0 11 5 11 10 0 6 -2 10 -4 10 -3 0
-8 -4 -11 -10z"/>
<path d="M1254 1499 c-4 -7 -3 -9 4 -5 5 3 13 0 15 -6 4 -9 6 -10 6 -1 1 17
-16 25 -25 12z"/>
<path d="M1211 1474 c13 -14 36 -32 51 -40 30 -16 51 -19 28 -4 -8 5 -11 12
-7 16 3 4 15 1 24 -7 16 -13 17 -12 4 4 -8 10 -20 16 -28 13 -7 -3 -13 -2 -13
3 0 4 -19 15 -42 24 l-41 17 24 -26z"/>
<path d="M4100 1475 c0 -8 4 -15 10 -15 5 0 7 7 4 15 -4 8 -8 15 -10 15 -2 0
-4 -7 -4 -15z"/>
<path d="M1375 1450 c-3 -5 -1 -10 4 -10 6 0 11 5 11 10 0 6 -2 10 -4 10 -3 0
-8 -4 -11 -10z"/>
<path d="M1155 1398 c17 -20 39 -37 50 -37 18 0 18 1 -3 12 -12 7 -20 16 -17
20 3 4 2 5 -2 2 -3 -3 -18 5 -32 17 -22 20 -21 18 4 -14z"/>
<path d="M755 1389 c-4 -6 -5 -12 -2 -15 2 -3 7 2 10 11 7 17 1 20 -8 4z"/>
<path d="M1612 1360 c0 -14 2 -19 5 -12 2 6 2 18 0 25 -3 6 -5 1 -5 -13z"/>
<path d="M3650 1319 c0 -5 5 -7 10 -4 6 3 10 8 10 11 0 2 -4 4 -10 4 -5 0 -10
-5 -10 -11z"/>
<path d="M1603 1275 c0 -22 2 -30 4 -17 2 12 2 30 0 40 -3 9 -5 -1 -4 -23z"/>
<path d="M4116 1252 c-3 -5 1 -9 9 -9 8 0 12 4 9 9 -3 4 -7 8 -9 8 -2 0 -6 -4
-9 -8z"/>
<path d="M1070 1234 c0 -8 5 -12 10 -9 6 4 8 11 5 16 -9 14 -15 11 -15 -7z"/>
<path d="M3912 1220 c0 -14 2 -19 5 -12 2 6 2 18 0 25 -3 6 -5 1 -5 -13z"/>
<path d="M815 1200 c-4 -6 -11 -7 -17 -4 -7 4 -8 2 -4 -4 5 -9 13 -9 27 -2 10
6 19 13 19 15 0 9 -19 5 -25 -5z"/>
<path d="M1082 1190 c-23 -11 -42 -24 -42 -31 0 -7 7 -8 18 -4 9 5 53 11 97
15 44 4 76 8 70 9 -5 0 -31 7 -56 15 -42 13 -50 12 -87 -4z"/>
<path d="M1293 1185 c0 -8 4 -12 9 -9 5 3 6 10 3 15 -9 13 -12 11 -12 -6z"/>
<path d="M1096 1132 c-3 -5 0 -9 7 -10 7 -1 26 -4 42 -8 20 -4 27 -3 20 3 -14
15 -63 25 -69 15z"/>
<path d="M1196 1132 c-4 -7 -4 -12 1 -12 4 0 1 -5 -7 -10 -12 -7 -8 -10 15
-10 17 0 25 4 19 8 -6 4 -13 14 -16 22 -3 10 -6 11 -12 2z"/>
<path d="M823 1085 c0 -8 4 -12 9 -9 5 3 6 10 3 15 -9 13 -12 11 -12 -6z"/>
<path d="M4269 1036 c-59 -40 -78 -126 -29 -126 17 0 18 4 9 26 -14 38 -3 61
43 95 49 35 28 39 -23 5z"/>
<path d="M4368 959 c-15 -21 -26 -39 -23 -39 7 0 58 70 54 74 -2 2 -16 -14
-31 -35z"/>
<path d="M4317 913 c-4 -3 -24 -9 -44 -13 -36 -7 -36 -8 -7 -9 16 0 39 6 50
14 10 8 16 15 13 15 -3 0 -9 -3 -12 -7z"/>
<path d="M893 797 c-3 -7 -3 -9 2 -5 4 4 14 3 21 -3 8 -7 14 -7 19 1 3 5 5 10
3 11 -27 6 -39 5 -45 -4z"/>
<path d="M890 770 c-11 -7 -11 -10 -2 -10 8 0 10 -5 6 -12 -5 -9 -3 -9 9 1 9
7 14 17 11 22 -6 11 -6 11 -24 -1z"/>
<path d="M876 708 c3 -5 10 -6 15 -3 13 9 11 12 -6 12 -8 0 -12 -4 -9 -9z"/>
<path d="M592 580 c0 -14 2 -19 5 -12 2 6 2 18 0 25 -3 6 -5 1 -5 -13z"/>
<path d="M881 557 c-8 -10 -7 -14 2 -14 8 0 14 6 14 14 0 7 -1 13 -2 13 -2 0
-8 -6 -14 -13z"/>
<path d="M920 535 c-7 -8 -16 -13 -20 -10 -5 3 -11 1 -14 -4 -5 -8 15 -8 34
-1 3 1 8 2 11 2 3 -1 6 6 6 14 0 18 -2 18 -17 -1z"/>
<path d="M3311 202 c-23 -29 -41 -60 -41 -73 1 -22 5 -20 40 20 35 41 57 87
47 98 -3 2 -23 -18 -46 -45z"/>
<path d="M2738 175 c-20 -14 -41 -25 -47 -25 -5 0 -11 -5 -13 -10 -2 -6 -19
-16 -38 -23 -19 -7 -61 -27 -93 -45 -31 -19 -81 -42 -110 -52 l-52 -19 116 -1
116 0 28 43 c16 23 53 68 83 100 30 31 53 57 51 57 -2 0 -21 -11 -41 -25z"/>
</g>
</svg>
